# Blender v2.78 (sub 0) OBJ File: 'untitled.blend'
# www.blender.org
mtllib obelisk.mtl
o Cube_Cube.001
v -1.000000 0.000000 1.000000
v -1.000000 0.500000 1.000000
v -1.000000 0.000000 -1.000000
v -1.000000 0.500000 -1.000000
v 1.000000 0.000000 1.000000
v 1.000000 0.500000 1.000000
v 1.000000 0.000000 -1.000000
v 1.000000 0.500000 -1.000000
v -0.576882 0.500000 0.576882
v -0.576882 0.500000 -0.576882
v 0.576882 0.500000 -0.576882
v 0.576882 0.500000 0.576882
v -0.457968 0.674259 0.457968
v -0.457968 0.674259 -0.457968
v 0.457968 0.674259 -0.457968
v 0.457968 0.674259 0.457968
v -0.457968 1.014300 0.457968
v -0.457968 1.014300 -0.457968
v 0.457968 1.014300 -0.457968
v 0.457968 1.014300 0.457968
v -0.599601 1.206643 0.599601
v -0.599601 1.206643 -0.599601
v 0.599601 1.206643 -0.599601
v 0.599601 1.206643 0.599601
v -0.179763 3.360372 0.179763
v -0.179763 3.360372 -0.179763
v 0.179763 3.360372 -0.179763
v 0.179763 3.360372 0.179763
vt 0.2500 0.4219
vt 0.1875 0.4219
vt 0.1875 0.1719
vt 0.2500 0.1719
vt 0.3750 0.4219
vt 0.3125 0.4219
vt 0.3125 0.1719
vt 0.3750 0.1719
vt 0.1875 0.4219
vt 0.1250 0.4219
vt 0.1250 0.1719
vt 0.1875 0.1719
vt 0.2500 0.1719
vt 0.3125 0.1719
vt 0.3125 0.4219
vt 0.8125 0.4844
vt 0.5625 0.4844
vt 0.5625 0.2344
vt 0.8125 0.2344
vt 0.8125 0.4844
vt 0.8125 0.7344
vt 0.7656 0.6875
vt 0.7656 0.5312
vt 0.6562 0.8906
vt 0.7969 0.8906
vt 0.7812 0.9062
vt 0.6719 0.9062
vt 0.5625 0.4844
vt 0.6094 0.5312
vt 0.5625 0.7344
vt 0.6094 0.6875
vt 0.0156 0.6250
vt 0.1250 0.6250
vt 0.1250 0.6719
vt 0.0156 0.6719
vt 0.6562 0.8906
vt 0.7969 0.8906
vt 0.7812 0.9062
vt 0.6719 0.9062
vt 0.6562 0.8906
vt 0.7969 0.8906
vt 0.7812 0.9062
vt 0.6719 0.9062
vt 0.6562 0.8906
vt 0.7969 0.8906
vt 0.7812 0.9062
vt 0.6719 0.9062
vt 0.0156 0.6719
vt 0.1250 0.6719
vt 0.1406 0.6875
vt -0.0000 0.6875
vt 0.0156 0.6250
vt 0.1250 0.6250
vt 0.0156 0.6250
vt 0.1250 0.6250
vt 0.1250 0.6719
vt 0.0156 0.6719
vt 0.0156 0.6250
vt 0.1250 0.6250
vt 0.1250 0.6719
vt 0.0156 0.6719
vt -0.0000 0.6875
vt 0.1406 0.6875
vt 0.0938 0.9531
vt 0.0469 0.9531
vt 0.1406 0.6875
vt -0.0000 0.6875
vt 0.1406 0.6875
vt -0.0000 0.6875
vt 0.0938 1.0000
vt 0.0469 1.0000
vt 0.0938 0.9531
vt 0.0469 0.9531
vt 0.0938 0.9531
vt 0.0469 0.9531
vt 0.0938 0.9531
vt 0.0469 0.9531
vn -1.0000 0.0000 0.0000
vn 0.0000 0.0000 -1.0000
vn 1.0000 0.0000 0.0000
vn 0.0000 0.0000 1.0000
vn 0.0000 -1.0000 0.0000
vn 0.0000 1.0000 0.0000
vn 0.8260 0.5637 0.0000
vn -0.8260 0.5637 0.0000
vn 0.0000 0.5637 0.8260
vn 0.0000 0.5637 -0.8260
vn 0.0000 -0.5929 -0.8052
vn 0.9815 0.1913 0.0000
vn 0.8052 -0.5929 0.0000
vn -0.8052 -0.5929 0.0000
vn 0.0000 -0.5929 0.8052
vn -0.9815 0.1913 0.0000
vn 0.0000 0.1913 0.9815
vn 0.0000 0.1913 -0.9815
usemtl Material.001
s off
f 1/1/1 2/2/1 4/3/1 3/4/1
f 3/5/2 4/6/2 8/7/2 7/8/2
f 7/9/3 8/10/3 6/11/3 5/12/3
f 5/13/4 6/14/4 2/15/4 1/1/4
f 3/16/5 7/17/5 5/18/5 1/19/5
f 8/20/6 4/21/6 10/22/6 11/23/6
f 12/24/7 11/25/7 15/26/7 16/27/7
f 6/28/6 8/20/6 11/23/6 12/29/6
f 4/21/6 2/30/6 9/31/6 10/22/6
f 2/30/6 6/28/6 12/29/6 9/31/6
f 13/32/4 16/33/4 20/34/4 17/35/4
f 10/36/8 9/37/8 13/38/8 14/39/8
f 9/40/9 12/41/9 16/42/9 13/43/9
f 11/44/10 10/45/10 14/46/10 15/47/10
f 19/48/11 18/49/11 22/50/11 23/51/11
f 15/52/2 14/53/2 18/49/2 19/48/2
f 16/54/3 15/55/3 19/56/3 20/57/3
f 14/58/1 13/59/1 17/60/1 18/61/1
f 24/62/12 23/63/12 27/64/12 28/65/12
f 20/57/13 19/56/13 23/63/13 24/62/13
f 18/61/14 17/60/14 21/66/14 22/67/14
f 17/35/15 20/34/15 24/68/15 21/69/15
f 27/64/6 26/70/6 25/71/6 28/65/6
f 22/67/16 21/66/16 25/72/16 26/73/16
f 21/69/17 24/68/17 28/74/17 25/75/17
f 23/51/18 22/50/18 26/76/18 27/77/18
