# Blender v2.78 (sub 0) OBJ File: 'potionnullifier.blend'
# www.blender.org
mtllib potionnullifier.mtl
o Cube
v 1.000000 0.000000 -1.000000
v 1.000000 0.000000 1.000000
v -1.000000 0.000000 1.000000
v -1.000000 0.000000 -1.000000
v 1.000000 0.467186 -0.999999
v 0.999999 0.467186 1.000001
v -1.000000 0.467186 1.000000
v -1.000000 0.467186 -1.000000
v 0.479657 0.467186 -0.479656
v 0.479656 0.467186 0.479657
v -0.479657 0.467186 -0.479657
v -0.479657 0.467186 0.479657
v 0.357441 0.941178 -0.357441
v 0.357441 0.941178 0.357441
v -0.357441 0.941178 -0.357441
v -0.357441 0.941178 0.357441
v 0.357441 3.104595 -0.357441
v 0.357441 3.104595 0.357441
v -0.357441 3.104595 -0.357441
v -0.357441 3.104595 0.357441
v -0.357441 2.665300 0.357441
v -0.357441 2.323148 -0.357441
v 0.357441 2.323148 -0.357441
v 0.357441 2.665300 0.357441
v -0.357441 1.604235 -0.357441
v 0.357441 1.604235 -0.357441
v -0.357441 1.946387 0.357441
v 0.357441 1.946387 0.357441
v -0.258384 2.223532 -0.357441
v 0.258384 2.223532 -0.357441
v -0.258384 1.703851 -0.357441
v 0.258384 1.703851 -0.357441
v -0.258384 2.223532 -0.581853
v 0.258384 2.223532 -0.581853
v -0.258384 1.703851 -0.581853
v 0.258384 1.703851 -0.581853
v -0.300752 2.825540 -0.581853
v 0.300752 2.825540 -0.581853
v -0.300752 1.101843 -0.581853
v 0.300752 1.101843 -0.581853
v -0.300752 2.825540 -1.134979
v 0.300752 2.825540 -1.134979
v -0.300752 1.101843 -1.134979
v 0.300752 1.101843 -1.134979
v -0.255993 2.048407 0.357441
v -0.255993 2.563281 0.357441
v 0.255993 2.048407 0.357441
v 0.255993 2.563281 0.357441
v -0.255993 2.048407 0.493152
v -0.255993 2.563281 0.493152
v 0.255993 2.048407 0.493152
v 0.255993 2.563281 0.493152
v -0.328952 1.472090 0.493152
v -0.328952 3.139598 0.493152
v 0.328952 1.472090 0.493152
v 0.328952 3.139598 0.493152
v -0.328953 1.472090 1.061017
v -0.328953 3.139598 1.061017
v 0.328951 1.472090 1.061017
v 0.328951 3.139598 1.061017
vt 0.6562 0.0625
vt 1.0000 0.0625
vt 1.0000 0.4062
vt 0.6562 0.4062
vt 0.6562 0.4062
vt 0.6562 0.0625
vt 0.7500 0.1562
vt 0.7500 0.3125
vt 0.9688 0.1562
vt 0.9688 0.2188
vt 0.6562 0.2188
vt 0.6562 0.1562
vt 0.6250 0.2812
vt 0.6250 0.2188
vt 0.9375 0.2188
vt 0.9375 0.2812
vt 0.6250 0.2812
vt 0.6250 0.1875
vt 0.9688 0.1875
vt 0.9688 0.2812
vt 0.7188 0.1875
vt 0.7188 0.1250
vt 1.0000 0.1250
vt 1.0000 0.1875
vt 0.4375 0.6562
vt 0.2812 0.6562
vt 0.3125 0.5625
vt 0.4062 0.5625
vt 1.0000 0.0625
vt 0.9062 0.1562
vt 1.0000 0.4062
vt 0.9062 0.3125
vt 0.1250 0.4375
vt 0.2500 0.4688
vt 0.2500 0.5625
vt 0.1250 0.5625
vt 0.4062 0.6562
vt 0.2500 0.6562
vt 0.2812 0.5625
vt 0.3750 0.5625
vt 0.4062 0.6562
vt 0.2500 0.6562
vt 0.2812 0.5625
vt 0.3750 0.5625
vt 0.4062 0.6562
vt 0.2500 0.6562
vt 0.2812 0.5625
vt 0.3750 0.5625
vt 0.3750 0.8750
vt 0.3750 1.0000
vt 0.2500 1.0000
vt 0.2500 0.8750
vt 0.1250 0.8750
vt 0.2500 0.8750
vt 0.2500 1.0000
vt 0.1250 1.0000
vt 0.0000 0.5000
vt 0.1250 0.5000
vt 0.1250 0.5625
vt 0.0000 0.5625
vt -0.0000 0.9375
vt -0.0000 1.0000
vt 0.0000 0.8125
vt 0.1250 0.7500
vt 0.0000 0.3750
vt 0.0312 0.3750
vt 0.0312 0.4688
vt 0.2500 0.7500
vt 0.2188 0.7812
vt 0.1562 0.7812
vt 0.1250 0.3125
vt 0.2500 0.3438
vt 0.1250 0.1875
vt 0.2500 0.1875
vt 0.1250 0.6250
vt 0.2500 0.6250
vt -0.0000 0.1875
vt 0.1250 0.1875
vt 0.1250 0.3750
vt 0.0000 0.6250
vt 0.2031 0.8107
vt 0.2031 0.9014
vt 0.1689 0.9014
vt 0.1689 0.8107
vt 0.1562 0.8438
vt 0.2188 0.8438
vt 0.0184 0.3161
vt 0.0184 0.4069
vt 0.0119 0.5120
vt 0.0119 0.2109
vt 0.2374 0.9010
vt 0.2374 0.8107
vt 0.2717 0.8107
vt 0.2717 0.9010
vt 0.2374 0.9913
vt 0.2374 0.9010
vt 0.2717 0.9010
vt 0.2717 0.9913
vt 0.2374 0.8107
vt 0.2374 0.9014
vt 0.2031 0.9014
vt 0.2031 0.8107
vt 0.0000 0.9158
vt 0.0000 0.8107
vt 0.0844 0.8107
vt 0.0844 0.9158
vt 0.0972 0.3161
vt 0.1037 0.2109
vt 0.0972 0.4069
vt 0.1037 0.5120
vt 0.1250 0.5312
vt 0.0312 0.5312
vt 0.0312 0.2188
vt 0.1250 0.2188
vt 0.1562 0.5625
vt 0.1562 0.2500
vt 0.2500 0.2500
vt 0.2500 0.5625
vt 0.2188 0.1562
vt 0.2188 0.4688
vt 0.1250 0.4688
vt 0.1250 0.1562
vt 0.4062 0.9688
vt 0.4062 0.8750
vt 0.5000 0.8750
vt 0.5000 0.9688
vt 0.2717 0.9006
vt 0.2717 0.8107
vt 0.2924 0.8107
vt 0.2924 0.9006
vt 0.0938 0.4688
vt 0.0938 0.3750
vt 0.0285 0.4293
vt 0.1067 0.4293
vt 0.1178 0.5300
vt 0.0174 0.5300
vt 0.1689 0.9909
vt 0.1689 0.9014
vt 0.1896 0.9014
vt 0.1896 0.9909
vt 0.2924 0.9006
vt 0.2924 0.9905
vt 0.2717 0.9905
vt 0.2717 0.9006
vt 0.2103 0.9014
vt 0.2103 0.9909
vt 0.1896 0.9909
vt 0.1896 0.9014
vt 0.5000 0.8750
vt 0.5000 0.9688
vt 0.4062 0.9688
vt 0.4062 0.8750
vt 0.1067 0.3394
vt 0.1178 0.2387
vt 0.0285 0.3394
vt 0.0174 0.2387
vt 0.0000 0.2188
vt 0.0938 0.2188
vt 0.0938 0.5312
vt 0.0000 0.5312
vt 0.2188 0.2500
vt 0.2188 0.5312
vt 0.1250 0.5312
vt 0.1250 0.2500
vt 0.5754 0.8106
vt 0.5754 0.9255
vt 0.4887 0.9255
vt 0.4887 0.8106
vt 0.1562 0.5000
vt 0.1562 0.1875
vt 0.2500 0.1875
vt 0.2500 0.5000
vn 0.0000 -1.0000 0.0000
vn 0.0000 1.0000 0.0000
vn 1.0000 0.0000 0.0000
vn -0.0000 -0.0000 1.0000
vn -1.0000 -0.0000 -0.0000
vn 0.0000 0.0000 -1.0000
vn -0.0000 0.2497 0.9683
vn 0.9683 0.2497 0.0000
vn -0.9683 0.2497 -0.0000
vn 0.0000 0.2497 -0.9683
usemtl Material
s off
f 1/1/1 2/2/1 3/3/1 4/4/1
f 7/5/2 6/6/2 10/7/2 12/8/2
f 1/9/3 5/10/3 6/11/3 2/12/3
f 2/13/4 6/14/4 7/15/4 3/16/4
f 3/17/5 7/18/5 8/19/5 4/20/5
f 5/21/6 1/22/6 4/23/6 8/24/6
f 12/25/7 10/26/7 14/27/7 16/28/7
f 6/6/2 5/29/2 9/30/2 10/7/2
f 8/31/2 7/5/2 12/8/2 11/32/2
f 5/29/2 8/31/2 11/32/2 9/30/2
f 22/33/5 21/34/5 20/35/5 19/36/5
f 10/37/8 9/38/8 13/39/8 14/40/8
f 11/41/9 12/42/9 16/43/9 15/44/9
f 9/45/10 11/46/10 15/47/10 13/48/10
f 17/49/2 19/50/2 20/51/2 18/52/2
f 23/53/6 22/54/6 19/55/6 17/56/6
f 21/57/4 24/58/4 18/59/4 20/60/4
f 24/61/3 23/53/3 17/56/3 18/62/3
f 28/63/3 26/64/3 23/53/3 24/61/3
f 21/57/4 27/65/4 45/66/4 46/67/4
f 26/64/6 25/68/6 31/69/6 32/70/6
f 25/71/5 27/72/5 21/34/5 22/33/5
f 15/73/5 16/74/5 27/72/5 25/71/5
f 13/75/6 15/76/6 25/68/6 26/64/6
f 16/77/4 14/78/4 28/79/4 27/65/4
f 14/80/3 13/75/3 26/64/3 28/63/3
f 30/81/3 32/82/3 36/83/3 34/84/3
f 23/53/6 26/64/6 32/70/6 30/85/6
f 25/68/6 22/54/6 29/86/6 31/69/6
f 22/54/6 23/53/6 30/85/6 29/86/6
f 34/87/4 36/88/4 40/89/4 38/90/4
f 29/91/2 30/92/2 34/93/2 33/94/2
f 32/95/1 31/96/1 35/97/1 36/98/1
f 31/99/5 29/100/5 33/101/5 35/102/5
f 40/103/1 39/104/1 43/105/1 44/106/1
f 33/107/4 34/87/4 38/90/4 37/108/4
f 36/88/4 35/109/4 39/110/4 40/89/4
f 35/109/4 33/107/4 37/108/4 39/110/4
f 44/111/6 43/112/6 41/113/6 42/114/6
f 39/115/5 37/116/5 41/117/5 43/118/5
f 38/119/3 40/120/3 44/121/3 42/122/3
f 37/123/2 38/124/2 42/125/2 41/126/2
f 46/127/5 45/128/5 49/129/5 50/130/5
f 24/58/4 21/57/4 46/67/4 48/131/4
f 28/79/4 24/58/4 48/131/4 47/132/4
f 27/65/4 28/79/4 47/132/4 45/66/4
f 49/133/6 51/134/6 55/135/6 53/136/6
f 45/137/1 47/138/1 51/139/1 49/140/1
f 47/141/3 48/142/3 52/143/3 51/144/3
f 48/145/2 46/146/2 50/147/2 52/148/2
f 56/149/2 54/150/2 58/151/2 60/152/2
f 51/134/6 52/153/6 56/154/6 55/135/6
f 52/153/6 50/155/6 54/156/6 56/154/6
f 50/155/6 49/133/6 53/136/6 54/156/6
f 57/157/4 59/158/4 60/159/4 58/160/4
f 54/161/5 53/162/5 57/163/5 58/164/5
f 53/165/1 55/166/1 59/167/1 57/168/1
f 55/169/3 56/170/3 60/171/3 59/172/3
