# Blender v2.78 (sub 0) OBJ File: ''
# www.blender.org
mtllib watermill.mtl
o Cube
v 0.835184 0.914546 1.019018
v 1.000000 0.000000 1.999999
v -1.000000 0.000000 1.999999
v 0.835184 1.085454 1.019019
v 0.835184 0.914546 0.833305
v 0.999999 2.000000 2.000000
v -1.000000 2.000000 1.999999
v 0.835184 1.085454 0.833305
v 0.784266 1.172979 0.738198
v 1.000000 0.147677 1.852323
v 0.784266 1.172979 1.114126
v 0.999999 1.852323 1.852323
v 0.784266 0.827021 1.114125
v 0.784266 0.147677 1.852323
v 0.784266 0.827021 0.738197
v 0.784266 1.852323 1.852323
v 0.835184 0.914546 -1.019018
v 1.000000 0.000000 -1.999999
v -1.000000 0.000000 -1.999999
v 0.835184 1.085454 -1.019019
v 0.835184 0.914546 -0.833305
v 0.999999 2.000000 -2.000000
v -1.000000 2.000000 -1.999999
v 0.835184 1.085454 -0.833305
v 0.784266 1.172979 -0.738198
v 1.000000 0.147677 -1.852323
v 0.784266 1.172979 -1.114126
v 0.999999 1.852323 -1.852323
v 0.784266 0.827021 -1.114125
v 0.784266 0.147677 -1.852323
v 0.784266 0.827021 -0.738197
v 0.784266 1.852323 -1.852323
v 1.000000 0.000000 0.000000
v -1.000000 0.000000 0.000000
v 1.000000 2.000000 0.000000
v -1.000000 2.000000 0.000000
v 1.000000 0.147677 0.000000
v 1.000000 1.852323 0.000000
v 0.784266 0.147677 0.000000
v 0.784266 1.852323 0.000000
v 0.258054 2.000000 0.741945
v 0.258054 2.000000 1.258055
v -0.258055 2.000000 1.258054
v -0.258055 2.000000 0.741945
v 0.258054 2.493168 0.741945
v 0.258054 2.493168 1.258055
v -0.258055 2.493168 1.258054
v -0.258055 2.493168 0.741945
v 0.145015 2.493168 0.854985
v 0.145015 2.493168 1.145015
v -0.145015 2.493168 1.145015
v -0.145015 2.493168 0.854985
v 0.145015 3.199229 0.854985
v 0.145015 3.199229 1.145015
v -0.145015 3.199229 1.145015
v -0.145015 3.199229 0.854985
v 0.087205 3.199229 0.912794
v 0.087205 3.199229 1.087205
v -0.087206 3.199229 1.087205
v -0.087206 3.199229 0.912794
v 0.087205 2.619049 0.912794
v 0.087205 2.619049 1.087205
v -0.087206 2.619049 1.087205
v -0.087206 2.619049 0.912794
v -0.520600 2.000000 -0.119596
v 0.520600 2.000000 -0.119596
v 0.520600 2.000000 -1.160797
v -0.520601 2.000000 -1.160796
v -0.520600 2.178111 -0.119596
v 0.520600 2.178111 -0.119596
v 0.520600 2.178111 -1.160797
v -0.520601 2.178111 -1.160796
v -0.357657 2.178111 -0.282539
v 0.357657 2.178111 -0.282539
v 0.357657 2.178111 -0.997854
v -0.357657 2.178111 -0.997854
v -0.235206 2.355714 -0.404990
v 0.235206 2.355714 -0.404990
v 0.235206 2.355714 -0.875403
v -0.235206 2.355714 -0.875403
v -0.235206 3.079616 -0.404990
v 0.235206 3.079616 -0.404990
v 0.235206 3.079616 -0.875403
v -0.235206 3.079616 -0.875403
v -0.101402 2.744759 -0.404990
v 0.101402 2.744759 -0.404990
v -0.101402 2.946508 -0.404990
v 0.101402 2.946508 -0.404990
v -0.101402 2.744759 0.866925
v 0.101402 2.744759 0.866925
v -0.101402 2.946508 0.866925
v 0.101402 2.946508 0.866925
v -0.149152 3.079616 -0.491044
v 0.149152 3.079616 -0.491044
v 0.149152 3.079616 -0.789348
v -0.149152 3.079616 -0.789348
v -0.149152 2.482149 -0.491044
v 0.149152 2.482149 -0.491044
v 0.149152 2.482149 -0.789348
v -0.149152 2.482149 -0.789348
v -1.000000 0.649046 0.701908
v -1.000000 1.350954 0.701908
v -1.000000 0.649046 0.000000
v -1.000000 1.350954 0.000000
v -1.000000 0.649046 -0.701908
v -1.000000 1.350954 -0.701908
v -0.828353 0.649046 0.701908
v -0.828353 1.350954 0.701908
v -0.828353 0.649046 0.000000
v -0.828353 1.350954 0.000000
v -0.828353 0.649046 -0.701908
v -0.828353 1.350954 -0.701908
v -0.828353 0.816746 0.366508
v -0.828353 1.183254 0.366508
v -0.828353 0.816746 0.000000
v -0.828353 1.183254 0.000000
v -0.828353 0.816746 -0.366508
v -0.828353 1.183254 -0.366508
v -0.919364 0.816746 0.366508
v -0.919364 1.183254 0.366508
v -0.919364 0.816746 0.000000
v -0.919364 1.183254 0.000000
v -0.919364 0.816746 -0.366508
v -0.919364 1.183254 -0.366508
v 0.518381 0.485107 1.999999
v -0.518381 0.485107 1.999999
v 0.518380 1.514893 2.000000
v -0.518381 1.514893 1.999999
v 0.518381 0.485107 -1.999999
v -0.518381 0.485107 -1.999999
v 0.518380 1.514893 -2.000000
v -0.518381 1.514893 -1.999999
v 0.496072 0.485107 1.716996
v -0.540690 0.485107 1.716996
v 0.496072 1.514893 1.716997
v -0.540690 1.514893 1.716996
v 0.518381 0.485107 -1.716996
v -0.518381 0.485107 -1.716996
v 0.518380 1.514893 -1.716997
v -0.518381 1.514893 -1.716996
vt 0.2500 0.5000
vt 0.2500 0.7500
vt 0.0000 0.7500
vt 0.0000 0.5000
vt 0.2500 0.5000
vt 0.2500 0.7500
vt 0.1562 0.6562
vt 0.1562 0.5938
vt 0.2500 0.5000
vt 0.2500 0.7500
vt 0.2344 0.7344
vt 0.2344 0.5000
vt 0.2500 0.5000
vt 0.2500 0.7500
vt 0.1875 0.6875
vt 0.1875 0.5625
vt 0.0781 0.5000
vt 0.0781 0.7031
vt 0.0625 0.7031
vt 0.0625 0.5000
vt 0.0000 0.7500
vt 0.0156 0.7344
vt 0.2500 0.8125
vt 0.2500 0.7500
vt 0.2656 0.7656
vt 0.2656 0.7969
vt 0.4844 0.5156
vt 0.4844 0.7344
vt 0.4062 0.6406
vt 0.4062 0.5938
vt 0.3125 0.7500
vt 0.3125 0.8125
vt 0.2969 0.7969
vt 0.2969 0.7656
vt 0.0000 0.7188
vt 0.0000 0.5000
vt 0.0312 0.5000
vt 0.0312 0.7188
vt 0.0938 0.7344
vt 0.0938 0.5000
vt 0.1250 0.5000
vt 0.1250 0.7344
vt 0.2656 0.5156
vt 0.3594 0.5938
vt 0.0000 0.5000
vt 0.0156 0.5000
vt 0.0000 0.7500
vt 0.0000 0.5000
vt 0.0781 0.6562
vt 0.0781 0.7500
vt 0.2656 0.7344
vt 0.3594 0.6406
vt 0.2500 0.7500
vt 0.0000 0.7500
vt 0.0000 0.5000
vt 0.2500 0.7500
vt 0.0000 0.7500
vt 0.0625 0.7344
vt 0.1875 0.7344
vt 0.2500 0.7500
vt 0.2344 0.7500
vt 0.2344 0.5156
vt 0.2500 0.5000
vt -0.0000 0.5000
vt 0.0625 0.5625
vt 0.0625 0.6875
vt 0.0625 0.5312
vt 0.0938 0.5312
vt 0.0938 0.7344
vt 0.0625 0.7344
vt 0.0156 0.5156
vt 0.0000 0.5000
vt 0.2500 0.7500
vt 0.2656 0.7656
vt 0.2656 0.7969
vt 0.2500 0.8125
vt 0.4844 0.7344
vt 0.4062 0.6406
vt 0.4062 0.5938
vt 0.4844 0.5156
vt 0.3125 0.8125
vt 0.2969 0.7969
vt 0.2969 0.7656
vt 0.3125 0.7500
vt 0.1094 0.5000
vt 0.1250 0.5000
vt 0.1250 0.7344
vt 0.1094 0.7344
vt 0.1875 0.5156
vt 0.2188 0.5156
vt 0.2188 0.7344
vt 0.1875 0.7344
vt 0.2656 0.7344
vt 0.3594 0.6406
vt 0.0156 0.7500
vt 0.0000 0.7500
vt 0.0000 0.7500
vt 0.0000 0.5000
vt 0.0781 0.5000
vt 0.0781 0.5938
vt 0.2656 0.5156
vt 0.3594 0.5938
vt 0.1406 0.8594
vt 0.1406 0.9375
vt 0.0781 0.9375
vt 0.0781 0.8594
vt 0.0000 0.5000
vt 0.0938 0.5938
vt 0.0000 0.7500
vt 0.0938 0.6562
vt 0.0938 0.8906
vt 0.0938 0.8281
vt 0.1094 0.8438
vt 0.1094 0.8750
vt 0.1875 0.9688
vt 0.1875 0.8906
vt 0.2500 0.8906
vt 0.2500 0.9688
vt 0.1250 0.9219
vt 0.1250 0.8438
vt 0.1875 0.8438
vt 0.1875 0.9219
vt 0.1250 0.8438
vt 0.1250 0.9219
vt 0.0625 0.9219
vt 0.0625 0.8438
vt 0.6406 0.8750
vt 0.6094 0.8750
vt 0.6094 0.7969
vt 0.6406 0.7969
vt 0.1562 0.8281
vt 0.1562 0.8906
vt 0.1406 0.8750
vt 0.1406 0.8438
vt 0.7199 0.9604
vt 0.6846 0.9604
vt 0.6916 0.9534
vt 0.7128 0.9534
vt 0.6250 0.8594
vt 0.6562 0.8594
vt 0.6562 0.9375
vt 0.6250 0.9375
vt 0.5938 0.8125
vt 0.6250 0.8125
vt 0.6250 0.8906
vt 0.5938 0.8906
vt 0.7199 0.9251
vt 0.6846 0.9251
vt 0.6846 0.8393
vt 0.7199 0.8393
vt 0.6250 0.8594
vt 0.6562 0.8594
vt 0.6562 0.9375
vt 0.6250 0.9375
vt 0.6846 0.9251
vt 0.7199 0.9251
vt 0.7128 0.9322
vt 0.6916 0.9322
vt 0.1562 0.8750
vt 0.1562 0.9062
vt 0.1250 0.9062
vt 0.1250 0.8750
vt 0.6094 0.8281
vt 0.6250 0.8281
vt 0.6250 0.9062
vt 0.6094 0.9062
vt 0.5781 0.8594
vt 0.6094 0.8594
vt 0.6094 0.9375
vt 0.5781 0.9375
vt 0.6250 0.8906
vt 0.5938 0.8906
vt 0.5938 0.8281
vt 0.6250 0.8281
vt 0.1094 0.7812
vt 0.1094 0.9062
vt 0.0938 0.9062
vt 0.0938 0.7812
vt 0.2500 0.5000
vt 0.1875 0.6094
vt 0.0000 0.5000
vt 0.0625 0.6094
vt 0.0625 0.9219
vt 0.0625 0.7969
vt 0.0781 0.8125
vt 0.0781 0.9062
vt 0.2031 0.8438
vt 0.2031 0.9688
vt 0.1875 0.9688
vt 0.1875 0.8438
vt 0.1562 0.8594
vt 0.1562 0.9844
vt 0.1406 0.9844
vt 0.1406 0.8594
vt 0.0625 0.8594
vt 0.0625 0.9844
vt 0.0469 0.9844
vt 0.0469 0.8594
vt 0.5938 0.8594
vt 0.5938 0.9375
vt 0.5625 0.9219
vt 0.5625 0.8750
vt 0.1875 0.7969
vt 0.1875 0.9219
vt 0.1719 0.9062
vt 0.1719 0.8125
vt 0.6250 0.8594
vt 0.5625 0.8594
vt 0.5625 0.7656
vt 0.6250 0.7656
vt 0.5469 0.6562
vt 0.5469 0.7344
vt 0.5156 0.7188
vt 0.5156 0.6719
vt 0.5469 0.8281
vt 0.5469 0.9219
vt 0.5156 0.9062
vt 0.5156 0.8438
vt 0.5156 0.8125
vt 0.5156 0.7500
vt 0.6406 0.8438
vt 0.7031 0.8438
vt 0.6875 0.8594
vt 0.6562 0.8594
vt 0.6094 0.7656
vt 0.6094 0.8594
vt 0.5938 0.8125
vt 0.5938 0.7812
vt 0.6250 0.8594
vt 0.5625 0.8594
vt 0.5625 0.7656
vt 0.6250 0.7656
vt 0.6094 0.8594
vt 0.5469 0.8594
vt 0.5469 0.7656
vt 0.6094 0.7656
vt 0.6250 0.7969
vt 0.6406 0.7969
vt 0.6406 0.9531
vt 0.6250 0.9531
vt 0.5469 0.8594
vt 0.5625 0.8125
vt 0.5469 0.7656
vt 0.5625 0.7812
vt 0.3436 0.9437
vt 0.3436 0.9190
vt 0.3681 0.9190
vt 0.3681 0.9437
vt 0.6250 0.7656
vt 0.6562 0.7656
vt 0.6562 0.9219
vt 0.6250 0.9219
vt 0.6406 0.7812
vt 0.6562 0.7812
vt 0.6562 0.9375
vt 0.6406 0.9375
vt 0.6562 0.9531
vt 0.6406 0.9531
vt 0.6406 0.7969
vt 0.6562 0.7969
vt 0.5929 0.9647
vt 0.5929 0.9284
vt 0.6086 0.9284
vt 0.6086 0.9647
vt 0.7031 0.9062
vt 0.6406 0.9062
vt 0.6562 0.8906
vt 0.6875 0.8906
vt 0.1719 0.9219
vt 0.1719 0.8750
vt 0.2031 0.8750
vt 0.2031 0.9219
vt 0.6406 0.9062
vt 0.6406 0.8594
vt 0.6562 0.8594
vt 0.6562 0.9062
vt 0.6406 0.8906
vt 0.6250 0.8906
vt 0.6250 0.8594
vt 0.5929 0.9647
vt 0.5771 0.9647
vt 0.5771 0.9284
vt 0.1875 0.7031
vt 0.1875 0.6094
vt 0.2031 0.6094
vt 0.2031 0.7031
vt 0.1406 0.6406
vt 0.1406 0.5625
vt 0.1562 0.5625
vt 0.1562 0.6406
vt 0.2500 0.5000
vt 0.2500 0.7500
vt 0.1719 0.5938
vt 0.1719 0.5000
vt 0.2500 0.5000
vt 0.2500 0.7500
vt 0.1719 0.7500
vt 0.1719 0.6562
vt 0.5938 0.7812
vt 0.6719 0.7812
vt 0.6562 0.8281
vt 0.6094 0.8281
vt 0.5938 0.8594
vt 0.6094 0.8594
vt 0.1875 0.5312
vt 0.2031 0.5312
vt 0.1406 0.6094
vt 0.1406 0.5312
vt 0.1719 0.5312
vt 0.1719 0.6094
vt 0.1406 0.6250
vt 0.1406 0.7031
vt 0.1250 0.7031
vt 0.1250 0.6250
vt 0.1406 0.6875
vt 0.1719 0.6875
vt 0.6719 0.5781
vt 0.6719 0.6094
vt 0.6562 0.6094
vt 0.6562 0.5781
vt 0.6719 0.5469
vt 0.6562 0.5469
vt 0.5938 0.9531
vt 0.6094 0.9062
vt 0.6719 0.9531
vt 0.6562 0.9062
vt 0.6719 0.8594
vt 0.6562 0.8594
vt 0.6250 0.6875
vt 0.5938 0.6875
vt 0.5938 0.6406
vt 0.6250 0.6406
vt 0.6250 0.5938
vt 0.5938 0.5938
vt 0.5781 0.5781
vt 0.5781 0.6250
vt 0.5625 0.6250
vt 0.5625 0.5781
vt 0.6562 0.6250
vt 0.6562 0.6094
vt 0.6719 0.6094
vt 0.6719 0.6250
vt 0.5781 0.5625
vt 0.5625 0.5625
vt 0.6562 0.6562
vt 0.6562 0.6250
vt 0.6719 0.6250
vt 0.6719 0.6562
vt 0.0469 0.6719
vt 0.0469 0.5469
vt 0.0781 0.5469
vt 0.0781 0.6719
vt 0.0156 0.6719
vt 0.0156 0.5469
vt 0.0469 0.5469
vt 0.0469 0.6719
vt 0.2500 0.5000
vt 0.1875 0.6875
vt 0.1875 0.5625
vt 0.0000 0.7500
vt 0.0625 0.5625
vt 0.0625 0.6875
vt 0.5469 0.5469
vt 0.7031 0.5469
vt 0.7031 0.7031
vt 0.5469 0.7031
vt 0.7031 0.5469
vt 0.7031 0.7031
vt 0.5469 0.7031
vt 0.5469 0.5469
vt 0.1406 0.6875
vt 0.1406 0.5625
vt 0.1406 0.6875
vt 0.1406 0.5625
vt 0.1719 0.5625
vt 0.1719 0.6875
vt 0.1094 0.6719
vt 0.1094 0.5469
vt 0.1406 0.5469
vt 0.1406 0.6719
vt 0.2031 0.5469
vt 0.2031 0.6719
vt 0.1719 0.6719
vt 0.1719 0.5469
vt 0.1719 0.5938
vt 0.1719 0.7188
vt 0.1406 0.7188
vt 0.1406 0.5938
vt 0.1250 0.6562
vt 0.1250 0.5312
vt 0.1562 0.5312
vt 0.1562 0.6562
vn 0.0000 -1.0000 0.0000
vn 0.0000 1.0000 0.0000
vn 1.0000 -0.0000 0.0000
vn -0.0000 -0.0000 -1.0000
vn 0.8644 0.5029 0.0000
vn 0.8644 -0.5029 0.0000
vn 0.8816 0.0000 -0.4720
vn -1.0000 0.0000 0.0000
vn 0.8816 0.0000 0.4720
vn -0.0000 -0.0000 1.0000
vn 0.8233 0.5676 -0.0000
vn -0.0000 0.5676 -0.8233
vn 0.0000 0.5676 0.8233
vn -0.8233 0.5676 0.0000
vn -0.9969 -0.0000 0.0786
vn 0.9969 0.0000 -0.0786
usemtl Material
s off
f 33/1/1 2/2/1 3/3/1 34/4/1
f 36/5/2 7/6/2 43/7/2 44/8/2
f 35/9/3 6/10/3 12/11/3 38/12/3
f 18/13/4 19/14/4 130/15/4 129/16/4
f 12/17/4 10/18/4 14/19/4 16/20/4
f 6/10/3 2/21/3 10/22/3 12/11/3
f 9/23/5 11/24/5 4/25/5 8/26/5
f 14/27/3 39/28/3 15/29/3 13/30/3
f 13/31/6 15/32/6 5/33/6 1/34/6
f 38/35/1 12/36/1 16/37/1 40/38/1
f 15/32/7 9/23/7 8/26/7 5/33/7
f 5/33/3 8/26/3 4/25/3 1/34/3
f 10/39/2 37/40/2 39/41/2 14/42/2
f 16/43/3 14/27/3 13/30/3 11/44/3
f 2/21/3 33/45/3 37/46/3 10/22/3
f 36/47/8 23/48/8 106/49/8 104/50/8
f 40/51/3 16/43/3 11/44/3 9/52/3
f 39/28/3 40/51/3 9/52/3 15/29/3
f 11/24/9 13/31/9 1/34/9 4/25/9
f 33/53/1 34/54/1 19/55/1 18/13/1
f 36/56/2 35/57/2 66/58/2 65/59/2
f 35/60/3 38/61/3 28/62/3 22/63/3
f 3/3/10 2/64/10 125/65/10 126/66/10
f 28/67/10 32/68/10 30/69/10 26/70/10
f 22/63/3 28/62/3 26/71/3 18/72/3
f 25/73/5 24/74/5 20/75/5 27/76/5
f 30/77/3 29/78/3 31/79/3 39/80/3
f 29/81/6 17/82/6 21/83/6 31/84/6
f 38/85/1 40/86/1 32/87/1 28/88/1
f 31/84/9 21/83/9 24/74/9 25/73/9
f 21/83/3 17/82/3 20/75/3 24/74/3
f 26/89/2 30/90/2 39/91/2 37/92/2
f 32/93/3 27/94/3 29/78/3 30/77/3
f 18/72/3 26/71/3 37/95/3 33/96/3
f 7/97/8 36/98/8 104/99/8 102/100/8
f 40/101/3 25/102/3 27/94/3 32/93/3
f 39/80/3 31/79/3 25/102/3 40/101/3
f 27/76/7 20/75/7 17/82/7 29/81/7
f 44/103/8 43/104/8 47/105/8 48/106/8
f 35/107/2 36/5/2 44/8/2 41/108/2
f 7/6/2 6/109/2 42/110/2 43/7/2
f 6/109/2 35/107/2 41/108/2 42/110/2
f 48/111/2 47/112/2 51/113/2 52/114/2
f 42/115/3 41/116/3 45/117/3 46/118/3
f 41/119/4 44/120/4 48/121/4 45/122/4
f 43/123/10 42/124/10 46/125/10 47/126/10
f 49/127/4 52/128/4 56/129/4 53/130/4
f 46/131/2 45/132/2 49/133/2 50/134/2
f 45/132/2 48/111/2 52/114/2 49/133/2
f 47/112/2 46/131/2 50/134/2 51/113/2
f 56/135/2 55/136/2 59/137/2 60/138/2
f 51/139/10 50/140/10 54/141/10 55/142/10
f 52/143/8 51/144/8 55/145/8 56/146/8
f 50/147/3 49/148/3 53/149/3 54/150/3
f 58/151/8 57/152/8 61/153/8 62/154/8
f 54/155/2 53/156/2 57/157/2 58/158/2
f 53/156/2 56/135/2 60/138/2 57/157/2
f 55/136/2 54/155/2 58/158/2 59/137/2
f 61/159/2 64/160/2 63/161/2 62/162/2
f 57/163/10 60/164/10 64/165/10 61/166/10
f 59/167/4 58/168/4 62/169/4 63/170/4
f 60/171/3 59/172/3 63/173/3 64/174/3
f 67/175/4 68/176/4 72/177/4 71/178/4
f 23/179/2 36/56/2 65/59/2 68/180/2
f 22/181/2 23/179/2 68/180/2 67/182/2
f 35/57/2 22/181/2 67/182/2 66/58/2
f 72/183/2 69/184/2 73/185/2 76/186/2
f 65/187/10 66/188/10 70/189/10 69/190/10
f 68/191/8 65/192/8 69/193/8 72/194/8
f 66/195/3 67/196/3 71/197/3 70/198/3
f 74/199/11 75/200/11 79/201/11 78/202/11
f 70/203/2 71/204/2 75/205/2 74/206/2
f 71/204/2 72/183/2 76/186/2 75/205/2
f 69/184/2 70/203/2 74/206/2 73/185/2
f 79/207/4 80/208/4 84/209/4 83/210/4
f 75/211/12 76/212/12 80/213/12 79/214/12
f 73/215/13 74/216/13 78/217/13 77/218/13
f 76/212/14 73/215/14 77/219/14 80/220/14
f 84/221/2 81/222/2 93/223/2 96/224/2
f 81/225/10 77/226/10 85/227/10 87/228/10
f 80/229/8 77/230/8 81/231/8 84/232/8
f 78/233/3 79/234/3 83/235/3 82/236/3
f 86/237/3 88/238/3 92/239/3 90/240/3
f 77/226/10 78/241/10 86/242/10 85/227/10
f 78/241/10 82/243/10 88/244/10 86/242/10
f 82/243/10 81/225/10 87/228/10 88/244/10
f 89/245/10 90/246/10 92/247/10 91/248/10
f 85/249/1 86/250/1 90/251/1 89/252/1
f 87/253/8 85/254/8 89/255/8 91/256/8
f 88/257/2 87/258/2 91/259/2 92/260/2
f 96/261/3 93/262/3 97/263/3 100/264/3
f 82/265/2 83/266/2 95/267/2 94/268/2
f 83/266/2 84/221/2 96/224/2 95/267/2
f 81/222/2 82/265/2 94/268/2 93/223/2
f 98/269/2 99/270/2 100/271/2 97/272/2
f 94/273/8 95/274/8 99/275/8 98/276/8
f 95/274/10 96/277/10 100/278/10 99/279/10
f 93/262/4 94/280/4 98/281/4 97/282/4
f 105/283/2 103/284/2 109/285/2 111/286/2
f 101/287/4 102/288/4 108/289/4 107/290/4
f 34/291/8 3/292/8 101/293/8 103/294/8
f 19/295/8 34/296/8 103/297/8 105/298/8
f 3/292/8 7/97/8 102/100/8 101/293/8
f 23/48/8 19/295/8 105/298/8 106/49/8
f 112/299/8 111/300/8 117/301/8 118/302/8
f 110/303/8 112/299/8 118/302/8 116/304/8
f 103/284/2 101/305/2 107/306/2 109/285/2
f 104/307/1 106/308/1 112/309/1 110/310/1
f 106/311/10 105/312/10 111/313/10 112/314/10
f 102/315/1 104/307/1 110/310/1 108/316/1
f 115/317/1 113/318/1 119/319/1 121/320/1
f 117/321/1 115/317/1 121/320/1 123/322/1
f 108/323/8 110/303/8 116/304/8 114/324/8
f 107/325/8 108/323/8 114/324/8 113/326/8
f 111/300/8 109/327/8 115/328/8 117/301/8
f 109/327/8 107/325/8 113/326/8 115/328/8
f 119/329/8 120/330/8 122/331/8 121/332/8
f 123/333/8 121/332/8 122/331/8 124/334/8
f 116/335/2 118/336/2 124/337/2 122/338/2
f 118/339/4 117/340/4 123/341/4 124/342/4
f 114/343/2 116/335/2 122/338/2 120/344/2
f 113/345/10 114/346/10 120/347/10 119/348/10
f 131/349/8 129/350/8 137/351/8 139/352/8
f 132/353/1 131/354/1 139/355/1 140/356/1
f 6/357/10 7/6/10 128/358/10 127/359/10
f 23/360/4 22/181/4 131/361/4 132/362/4
f 7/6/10 3/3/10 126/66/10 128/358/10
f 19/14/4 23/360/4 132/362/4 130/15/4
f 2/64/10 6/357/10 127/359/10 125/65/10
f 22/181/4 18/13/4 129/16/4 131/361/4
f 133/363/10 135/364/10 136/365/10 134/366/10
f 137/367/4 138/368/4 140/369/4 139/370/4
f 127/359/1 128/358/1 136/371/1 135/372/1
f 125/373/15 127/374/15 135/375/15 133/376/15
f 130/377/3 132/378/3 140/379/3 138/380/3
f 129/381/2 130/382/2 138/383/2 137/384/2
f 128/385/16 126/386/16 134/387/16 136/388/16
f 126/389/2 125/390/2 133/391/2 134/392/2
