# Blender v2.78 (sub 0) OBJ File: 'photosynthesis gen.blend'
# www.blender.org
mtllib photosynthesis gen.mtl
o Cube
v 0.654653 0.000000 -0.654653
v 0.654653 0.000000 0.654653
v -0.654653 0.000000 0.654652
v -0.654652 0.000000 -0.654653
v 0.691205 1.032714 -0.691204
v 0.691204 1.032714 0.691205
v -0.691205 1.032714 0.691204
v -0.691205 1.032714 -0.691204
v 0.691205 0.691906 -0.691204
v 0.691204 0.691906 0.691205
v -0.691205 0.691906 0.691204
v -0.691204 0.691906 -0.691205
v 0.654653 0.677215 -0.654652
v 0.654652 0.677215 0.654653
v -0.654653 0.677215 0.654652
v -0.654653 0.677215 -0.654653
v 0.431114 1.032714 -0.431114
v 0.431114 1.032714 0.431115
v -0.431114 1.032714 -0.431114
v -0.431115 1.032714 0.431114
v 0.431114 1.000000 -0.431114
v 0.431114 1.000000 0.431115
v -0.431114 1.000000 -0.431114
v -0.431115 1.000000 0.431114
v 0.250996 1.000000 -0.250996
v 0.250996 1.000000 0.250996
v -0.250996 1.000000 -0.250996
v -0.250996 1.000000 0.250996
v 0.232977 1.529379 -0.250996
v 0.232977 1.529379 0.250996
v -0.232977 1.716146 -0.250996
v -0.232978 1.716147 0.250996
v 0.601467 2.576920 -0.217750
v 0.601466 2.576921 0.217750
v 0.166014 2.583345 -0.217750
v 0.166013 2.583345 0.217750
v 0.593044 2.854223 -0.217750
v 0.593044 2.854223 0.217750
v 0.180466 2.714795 -0.217750
v 0.180466 2.714795 0.217750
v 0.435157 3.287561 -0.217750
v 0.435157 3.287561 0.217750
v -0.000325 3.283636 -0.217750
v -0.000326 3.283636 0.217750
v 0.691657 3.289873 -0.474260
v 0.691656 3.289873 0.474261
v -0.256825 3.281325 -0.474260
v -0.256825 3.281324 0.474260
v 0.677784 4.468064 -0.474260
v 0.677783 4.468064 0.474261
v -0.270698 4.459516 -0.474260
v -0.270699 4.459516 0.474261
v 0.599214 4.467356 -0.395687
v 0.599213 4.467356 0.395688
v -0.192129 4.460224 -0.395687
v -0.192129 4.460224 0.395688
v 0.599349 4.430384 -0.395687
v 0.599349 4.430384 0.395688
v -0.191993 4.423252 -0.395687
v -0.191994 4.423251 0.395688
v 0.287909 2.119499 0.175327
v 0.381405 2.451591 0.168801
v 0.284433 2.113697 -0.169671
v 0.377930 2.445790 -0.176197
v 0.692763 2.022142 0.173554
v 0.638068 2.362782 0.167028
v 0.692047 2.015417 -0.171444
v 0.637351 2.356057 -0.177970
v 0.829538 2.426065 -0.114267
v 1.025973 2.336880 -0.110186
v 1.022716 2.339577 0.105545
v 0.826280 2.428762 0.101464
v 0.975458 2.739891 -0.116173
v 1.187351 2.699368 -0.112092
v 1.183551 2.701223 0.103639
v 0.971658 2.741747 0.099558
v 0.851397 2.762944 -0.247220
v 1.315943 2.674102 -0.238273
v 1.307612 2.678171 0.234686
v 0.843066 2.767013 0.225738
v 0.957142 3.315582 -0.250112
v 1.421688 3.226740 -0.241164
v 1.413357 3.230808 0.231794
v 0.948811 3.319651 0.222847
v 1.012931 3.305215 -0.191182
v 1.363862 3.238101 -0.184423
v 1.357569 3.241175 0.172864
v 1.006637 3.308289 0.166105
v 1.005013 3.263835 -0.190965
v 1.355944 3.196721 -0.184206
v 1.349651 3.199795 0.173081
v 0.998719 3.266909 0.166322
vt 0.2891 0.4688
vt 0.2891 0.3594
vt 0.3984 0.3594
vt 0.3984 0.4688
vt 0.6406 0.4609
vt 0.6406 0.5625
vt 0.6250 0.5469
vt 0.6250 0.4766
vt 0.7188 0.5234
vt 0.7422 0.5234
vt 0.7422 0.6328
vt 0.7188 0.6328
vt 0.7422 0.6328
vt 0.7188 0.6328
vt 0.7188 0.5234
vt 0.7422 0.5234
vt 0.7422 0.6328
vt 0.7188 0.6328
vt 0.7188 0.5234
vt 0.7422 0.5234
vt 0.3438 0.6250
vt 0.3438 0.5703
vt 0.4531 0.5703
vt 0.4531 0.6250
vt 0.7188 0.5234
vt 0.7422 0.5234
vt 0.7422 0.6328
vt 0.7188 0.6328
vt 0.3984 0.3516
vt 0.3906 0.3594
vt 0.3906 0.2500
vt 0.3984 0.2578
vt 0.4922 0.3516
vt 0.5000 0.3594
vt 0.4922 0.2578
vt 0.5000 0.2500
vt 0.4219 0.5938
vt 0.4219 0.6406
vt 0.3125 0.6406
vt 0.3125 0.5938
vt 0.3516 0.4844
vt 0.3516 0.4375
vt 0.4688 0.4375
vt 0.4688 0.4844
vt 0.3203 0.5234
vt 0.3203 0.4688
vt 0.4297 0.4688
vt 0.4297 0.5234
vt 0.6250 0.5547
vt 0.6250 0.4453
vt 0.6250 0.4453
vt 0.6250 0.5547
vt 0.5391 0.5625
vt 0.5391 0.4609
vt 0.5547 0.4766
vt 0.5547 0.5469
vt 0.1328 0.8516
vt 0.1328 0.7734
vt 0.1484 0.7891
vt 0.1484 0.8359
vt 0.6250 0.6250
vt 0.6250 0.5469
vt 0.6250 0.6250
vt 0.6250 0.5547
vt 0.6250 0.4453
vt 0.6328 0.4453
vt 0.6328 0.5547
vt 0.6250 0.5547
vt 0.6250 0.4453
vt 0.6250 0.4453
vt 0.6250 0.5547
vt 0.0469 0.6016
vt 0.0078 0.5938
vt 0.0078 0.5547
vt 0.0469 0.5391
vt 0.2109 0.8516
vt 0.1953 0.8359
vt 0.2109 0.7734
vt 0.1953 0.7891
vt 0.1719 0.3281
vt 0.2109 0.3281
vt 0.2109 0.4062
vt 0.1719 0.4062
vt 0.1719 0.2734
vt 0.2109 0.2734
vt 0.0547 0.3906
vt 0.1016 0.3906
vt 0.1016 0.4531
vt 0.0547 0.4531
vt 0.1172 0.2891
vt 0.1641 0.2734
vt 0.1719 0.3359
vt 0.1328 0.3281
vt 0.1094 0.4219
vt 0.1562 0.4219
vt 0.1562 0.4297
vt 0.1172 0.4453
vt 0.0938 0.5391
vt 0.0547 0.5391
vt 0.1250 0.3281
vt 0.1641 0.3281
vt 0.1641 0.4219
vt 0.1172 0.4297
vt -0.0000 0.4531
vt 0.0391 0.4688
vt 0.0391 0.4453
vt -0.0000 0.4297
vt 0.0078 0.3906
vt 0.0547 0.4062
vt 0.2109 0.4375
vt 0.1719 0.4375
vt 0.0938 0.5469
vt 0.0547 0.5469
vt 0.2266 0.8672
vt 0.2266 0.9141
vt 0.2109 0.9297
vt 0.2109 0.8516
vt 0.2109 0.4766
vt 0.1719 0.4766
vt 0.0938 0.5938
vt 0.0547 0.5938
vt 0.1250 0.4375
vt 0.1641 0.4375
vt 0.1641 0.4844
vt 0.1328 0.4844
vt 0.0000 0.8281
vt 0.0625 0.8281
vt 0.0625 0.9141
vt -0.0000 0.9141
vt 0.2734 0.8672
vt 0.2891 0.8516
vt 0.2734 0.9141
vt 0.2891 0.9297
vt 0.1328 0.8516
vt 0.2109 0.8516
vt 0.2031 0.8594
vt 0.1406 0.8594
vt 0.1250 0.8281
vt 0.1250 0.9141
vt 0.0625 0.9141
vt 0.1250 0.9141
vt 0.1250 1.0000
vt 0.0625 1.0000
vt 0.0000 0.9141
vt -0.0000 1.0000
vt 0.2109 0.8828
vt 0.2109 0.8672
vt 0.2188 0.8672
vt 0.2188 0.8828
vt 0.2109 0.9297
vt 0.2031 0.9219
vt 0.1328 0.9297
vt 0.1406 0.9219
vt 0.2031 0.9219
vt 0.1406 0.9219
vt 0.1406 0.8594
vt 0.2031 0.8594
vt 0.2188 0.8672
vt 0.2188 0.8828
vt 0.2109 0.8828
vt 0.2109 0.8672
vt 0.2188 0.8672
vt 0.2188 0.8828
vt 0.2188 0.8828
vt 0.2188 0.8672
vt 0.2188 0.8828
vt 0.2188 0.8828
vt 0.2188 0.8672
vt 0.1484 0.5156
vt 0.1719 0.5156
vt 0.1719 0.5391
vt 0.1484 0.5391
vt 0.1016 0.6641
vt 0.0859 0.6406
vt 0.1094 0.6328
vt 0.1250 0.6484
vt 0.1406 0.6172
vt 0.1641 0.6016
vt 0.1641 0.6328
vt 0.1562 0.6328
vt 0.1250 0.6094
vt 0.1406 0.5859
vt 0.1484 0.5156
vt 0.1484 0.5391
vt 0.1250 0.5391
vt 0.1250 0.5156
vt 0.0625 0.3594
vt 0.0625 0.3438
vt 0.0859 0.3438
vt 0.0859 0.3594
vt 0.1250 0.5547
vt 0.1406 0.5547
vt 0.1406 0.5859
vt 0.1250 0.5859
vt 0.0859 0.3438
vt 0.0625 0.3438
vt 0.0703 0.3125
vt 0.0859 0.3125
vt 0.0859 0.3750
vt 0.0703 0.3750
vt 0.1094 0.6172
vt 0.1250 0.6094
vt 0.5938 0.9688
vt 0.5938 0.9531
vt 0.6016 0.9453
vt 0.6016 0.9766
vt 0.1016 0.6016
vt 0.1094 0.5859
vt 0.1562 0.6641
vt 0.1406 0.6484
vt 0.0703 0.2891
vt 0.0859 0.2891
vt 0.3906 0.9375
vt 0.4219 0.9375
vt 0.4219 0.9766
vt 0.3906 0.9766
vt 0.5781 0.9688
vt 0.5703 0.9766
vt 0.5781 0.9531
vt 0.5703 0.9453
vt 0.4844 0.9453
vt 0.4844 0.9766
vt 0.4766 0.9688
vt 0.4766 0.9531
vt 0.4531 0.9375
vt 0.4531 0.9766
vt 0.4219 0.9375
vt 0.4531 0.9375
vt 0.4531 0.9766
vt 0.4219 0.9766
vt 0.4219 0.9375
vt 0.4531 0.9375
vt 0.4531 0.9766
vt 0.4219 0.9766
vt 0.2188 0.8828
vt 0.2188 0.8750
vt 0.2188 0.8750
vt 0.2188 0.8828
vt 0.4531 0.9453
vt 0.4609 0.9531
vt 0.4531 0.9766
vt 0.4609 0.9688
vt 0.4609 0.9531
vt 0.4766 0.9531
vt 0.4766 0.9688
vt 0.4609 0.9688
vt 0.2188 0.8750
vt 0.2188 0.8828
vt 0.2188 0.8828
vt 0.2188 0.8750
vt 0.2188 0.8750
vt 0.2188 0.8750
vt 0.2188 0.8828
vt 0.2188 0.8828
vt 0.2188 0.8828
vt 0.2188 0.8828
vn 0.0000 -1.0000 0.0000
vn 0.0000 1.0000 -0.0000
vn 1.0000 -0.0000 0.0000
vn -0.0000 -0.0000 1.0000
vn -1.0000 -0.0000 -0.0000
vn 0.0000 0.0000 -1.0000
vn -0.3729 -0.9279 -0.0000
vn -0.0000 -0.9279 0.3729
vn 0.3729 -0.9279 0.0000
vn 0.0000 -0.9279 -0.3729
vn 0.9433 -0.3318 0.0000
vn 0.9994 0.0340 0.0000
vn -0.9997 0.0252 -0.0000
vn -0.9085 0.4180 -0.0000
vn 0.0069 0.0320 -0.9995
vn 0.0068 0.0320 0.9995
vn 0.9995 0.0304 0.0000
vn -0.9940 0.1093 -0.0000
vn 0.0090 -1.0000 -0.0000
vn 0.9396 0.3423 0.0000
vn -0.9530 -0.3029 -0.0000
vn -0.0090 1.0000 0.0000
vn 0.9999 0.0118 0.0000
vn -0.9999 -0.0118 -0.0000
vn 1.0000 0.0037 0.0000
vn -1.0000 -0.0037 -0.0000
vn -0.9625 0.2711 0.0051
vn -0.0106 -0.0188 -0.9998
vn 0.1637 0.1198 0.9792
vn 0.0106 0.0188 0.9998
vn -0.2340 -0.9721 0.0191
vn 0.3268 0.9449 -0.0191
vn -0.9067 0.4213 -0.0193
vn 0.6934 -0.7204 0.0152
vn -0.3367 0.9415 -0.0173
vn 0.1750 0.0780 -0.9815
vn -0.1879 -0.9822 0.0051
vn 0.0159 -0.0129 -0.9998
vn -0.0159 0.0129 0.9998
vn 0.9135 -0.4064 0.0192
vn -0.0176 0.0086 0.9998
vn 0.1879 0.9822 -0.0051
vn 0.9820 -0.1878 0.0189
vn -0.9820 0.1878 -0.0189
vn 0.0176 -0.0086 -0.9998
usemtl Material
s off
f 1/1/1 2/2/1 3/3/1 4/4/1
f 6/5/2 5/6/2 17/7/2 18/8/2
f 9/9/3 5/10/3 6/11/3 10/12/3
f 10/13/4 6/14/4 7/15/4 11/16/4
f 11/17/5 7/18/5 8/19/5 12/20/5
f 13/21/6 1/22/6 4/23/6 16/24/6
f 5/25/6 9/26/6 12/27/6 8/28/6
f 15/29/7 11/30/7 12/31/7 16/32/7
f 14/33/8 10/34/8 11/30/8 15/29/8
f 13/35/9 9/36/9 10/34/9 14/33/9
f 1/37/3 13/38/3 14/39/3 2/40/3
f 2/41/4 14/42/4 15/43/4 3/44/4
f 3/45/5 15/46/5 16/47/5 4/48/5
f 9/36/10 13/35/10 16/32/10 12/31/10
f 20/49/6 18/50/6 22/51/6 24/52/6
f 8/53/2 7/54/2 20/55/2 19/56/2
f 5/6/2 8/53/2 19/56/2 17/7/2
f 7/54/2 6/5/2 18/8/2 20/55/2
f 23/57/2 24/58/2 28/59/2 27/60/2
f 18/61/5 17/7/5 21/62/5 22/63/5
f 19/64/3 20/65/3 24/66/3 23/67/3
f 17/68/4 19/69/4 23/70/4 21/71/4
f 28/72/4 26/73/4 30/74/4 32/75/4
f 21/76/2 23/57/2 27/60/2 25/77/2
f 24/58/2 22/78/2 26/79/2 28/59/2
f 22/78/2 21/76/2 25/77/2 26/79/2
f 30/80/11 29/81/11 33/82/11 34/83/11
f 26/84/12 25/85/12 29/81/12 30/80/12
f 27/86/13 28/87/13 32/88/13 31/89/13
f 25/90/6 27/91/6 31/92/6 29/93/6
f 33/94/6 35/95/6 39/96/6 37/97/6
f 31/89/14 32/88/14 36/98/14 35/99/14
f 29/100/15 31/101/15 35/102/15 33/103/15
f 32/75/16 30/74/16 34/104/16 36/105/16
f 40/106/4 38/107/4 42/108/4 44/109/4
f 36/105/4 34/104/4 38/107/4 40/106/4
f 34/83/17 33/82/17 37/110/17 38/111/17
f 35/99/18 36/98/18 40/112/18 39/113/18
f 43/114/19 44/115/19 48/116/19 47/117/19
f 38/111/20 37/110/20 41/118/20 42/119/20
f 39/113/21 40/112/21 44/120/21 43/121/21
f 37/122/6 39/123/6 43/124/6 41/125/6
f 48/126/4 46/127/4 50/128/4 52/129/4
f 41/130/19 43/114/19 47/117/19 45/131/19
f 44/115/19 42/132/19 46/133/19 48/116/19
f 42/132/19 41/130/19 45/131/19 46/133/19
f 52/134/22 50/135/22 54/136/22 56/137/22
f 46/127/23 45/138/23 49/139/23 50/128/23
f 47/140/24 48/141/24 52/142/24 51/143/24
f 45/144/6 47/140/6 51/143/6 49/145/6
f 55/146/25 56/147/25 60/148/25 59/149/25
f 50/135/22 49/150/22 53/151/22 54/136/22
f 51/152/22 52/134/22 56/137/22 55/153/22
f 49/150/22 51/152/22 55/153/22 53/151/22
f 57/154/22 59/155/22 60/156/22 58/157/22
f 53/158/4 55/159/4 59/160/4 57/161/4
f 56/162/6 54/163/6 58/164/6 60/148/6
f 54/165/26 53/166/26 57/167/26 58/168/26
f 61/169/27 62/170/27 64/171/27 63/172/27
f 63/173/28 64/174/28 68/175/28 67/176/28
f 66/177/29 65/178/29 71/179/29 72/180/29
f 65/178/30 66/177/30 62/181/30 61/182/30
f 63/183/31 67/184/31 65/185/31 61/186/31
f 68/187/32 64/188/32 62/189/32 66/190/32
f 69/191/33 72/192/33 76/193/33 73/194/33
f 65/195/34 67/196/34 70/197/34 71/198/34
f 68/187/35 66/190/35 72/199/35 69/200/35
f 67/176/36 68/175/36 69/201/36 70/202/36
f 73/203/37 76/204/37 80/205/37 77/206/37
f 70/202/38 69/201/38 73/207/38 74/208/38
f 72/180/39 71/179/39 75/209/39 76/210/39
f 71/198/40 70/197/40 74/211/40 75/212/40
f 80/213/41 79/214/41 83/215/41 84/216/41
f 74/217/37 73/203/37 77/206/37 78/218/37
f 76/204/37 75/219/37 79/220/37 80/205/37
f 75/219/37 74/217/37 78/218/37 79/220/37
f 81/221/42 84/222/42 88/223/42 85/224/42
f 79/214/43 78/225/43 82/226/43 83/215/43
f 77/227/44 80/228/44 84/229/44 81/230/44
f 78/231/45 77/232/45 81/233/45 82/234/45
f 86/235/41 85/236/41 89/237/41 90/238/41
f 82/239/42 81/221/42 85/224/42 86/240/42
f 84/222/42 83/241/42 87/242/42 88/223/42
f 83/241/42 82/239/42 86/240/42 87/242/42
f 90/243/42 89/244/42 92/245/42 91/246/42
f 88/247/45 87/248/45 91/249/45 92/250/45
f 87/251/44 86/235/44 90/238/44 91/252/44
f 85/253/43 88/254/43 92/255/43 89/256/43
