# Blender v2.78 (sub 0) OBJ File: ''
# www.blender.org
mtllib ggen.mtl
o Cube
v 1.000000 0.000000 -1.000000
v 1.000000 0.000000 1.000000
v -1.000000 0.000000 1.000000
v -1.000000 0.000000 -1.000000
v 0.973014 1.000000 -0.973013
v 0.973013 1.000000 0.973014
v -0.973014 1.000000 0.973013
v -0.973013 1.000000 -0.973013
v 1.005141 1.069300 -1.005140
v 1.005140 1.069300 1.005141
v -1.005140 1.069300 -1.005140
v -1.005141 1.069300 1.005140
v 1.005141 1.217800 -1.005140
v 1.005140 1.217800 1.005141
v -1.005140 1.217800 -1.005140
v -1.005141 1.217800 1.005140
v 0.454061 1.217800 -0.454060
v 0.454060 1.217800 0.454061
v -0.454061 1.217800 -0.454061
v -0.454061 1.217800 0.454061
v 0.454061 1.431978 -0.454060
v 0.454060 1.431978 0.454061
v -0.454061 1.431978 -0.454061
v -0.454061 1.431978 0.454061
v 0.649171 1.431978 -0.649170
v 0.649170 1.431978 0.649171
v -0.649171 1.431978 -0.649171
v -0.649171 1.431978 0.649171
v 0.649171 2.686355 -0.649170
v 0.649170 2.686355 0.649171
v -0.649171 2.686355 -0.649171
v -0.649171 2.686355 0.649171
v 0.996262 0.366565 -0.722998
v 0.996262 0.366565 0.722998
v 0.976751 0.633435 -0.703486
v 0.976751 0.633435 0.703487
v 0.153319 0.304936 -0.722998
v 0.153319 0.304936 0.722998
v 0.133808 0.571805 -0.703486
v 0.133807 0.571805 0.703487
v 0.974940 0.810977 0.834030
v 0.974941 0.810977 -0.834029
v 0.998073 0.189023 0.857161
v 0.998073 0.189023 -0.857161
v 0.974940 0.810977 0.834030
v 0.998073 0.189023 0.857161
v 0.974941 0.810977 -0.834029
v 0.998073 0.189023 -0.857161
v 1.070184 0.368715 -0.722998
v 1.070184 0.368715 0.722998
v 1.050673 0.635585 -0.703486
v 1.050672 0.635585 0.703487
v 1.048861 0.813127 0.834030
v 1.071994 0.191173 0.857161
v 1.048862 0.813127 -0.834029
v 1.071994 0.191173 -0.857161
vt -0.0000 1.0000
vt -0.0000 0.7500
vt 0.2500 0.7500
vt 0.2500 1.0000
vt 0.4170 0.4487
vt 0.3761 0.4487
vt 0.3761 0.4462
vt 0.4170 0.4462
vt 0.3438 0.8125
vt 0.3438 0.8281
vt 0.3438 0.8281
vt 0.3438 0.8125
vt -0.0000 0.9531
vt -0.0000 0.7500
vt 0.2500 0.7500
vt 0.2500 0.9531
vt 0.2500 0.9531
vt -0.0000 0.9531
vt -0.0000 0.7500
vt 0.2500 0.7500
vt 0.2500 0.9531
vt -0.0000 0.9531
vt 0.0000 0.7500
vt 0.5000 0.5000
vt 0.2500 0.5000
vt 0.2500 0.4688
vt 0.5000 0.4688
vt 0.3352 0.4334
vt 0.3761 0.4334
vt 0.3761 0.4359
vt 0.3352 0.4359
vt 0.3352 0.4819
vt 0.3761 0.4819
vt 0.3761 0.4845
vt 0.3352 0.4845
vt 0.4170 0.4002
vt 0.3761 0.4002
vt 0.3761 0.3976
vt 0.4170 0.3976
vt 0.0000 0.5000
vt 0.0000 0.2500
vt 0.0781 0.3281
vt 0.0781 0.4219
vt 0.2500 0.4688
vt 0.5000 0.4688
vt 0.5000 0.5000
vt 0.2500 0.5000
vt 0.2500 0.4688
vt 0.5000 0.4688
vt 0.5000 0.5000
vt 0.2500 0.5000
vt 0.5000 0.5000
vt 0.2500 0.5000
vt 0.2500 0.4688
vt 0.5000 0.4688
vt 0.1094 0.5781
vt 0.2031 0.5781
vt 0.2031 0.6250
vt 0.1094 0.6250
vt 0.2500 0.5000
vt 0.1719 0.4219
vt 0.2500 0.2500
vt 0.1719 0.3281
vt 0.1719 0.8125
vt 0.0781 0.8125
vt 0.0469 0.7969
vt 0.2031 0.7969
vt 0.1719 0.6562
vt 0.0781 0.6562
vt 0.0781 0.6094
vt 0.1719 0.6094
vt 0.1562 0.6250
vt 0.0625 0.6250
vt 0.0625 0.5781
vt 0.1562 0.5781
vt 0.1719 0.6250
vt 0.0781 0.6250
vt 0.0781 0.5781
vt 0.1719 0.5781
vt 0.3906 1.0000
vt 0.2500 1.0000
vt 0.2500 0.8594
vt 0.3906 0.8594
vt 0.0781 0.9219
vt 0.0469 0.9375
vt 0.1719 0.9219
vt 0.2031 0.9375
vt 0.2500 0.8594
vt 0.3906 1.0000
vt 0.2500 1.0000
vt 0.2500 0.8594
vt 0.3906 0.8594
vt 0.3906 1.0000
vt 0.2500 1.0000
vt 0.3906 1.0000
vt 0.2500 1.0000
vt 0.2500 0.8594
vt 0.3906 0.8594
vt 0.2500 0.8594
vt 0.3906 0.8594
vt 0.3906 1.0000
vt 0.0625 0.8906
vt 0.1250 0.8906
vt 0.1250 0.9844
vt 0.0781 0.9844
vt 0.3594 0.8125
vt 0.3594 0.8281
vt 0.3594 0.8281
vt 0.3594 0.8125
vt 0.1562 0.9531
vt 0.1562 0.7812
vt 0.1719 0.7812
vt 0.1719 0.9531
vt 0.0781 0.8750
vt 0.1250 0.8906
vt 0.1562 0.9688
vt 0.0781 0.9688
vt 0.0781 0.7812
vt 0.1562 0.7812
vt 0.0469 0.9531
vt 0.0469 0.7812
vt 0.0469 0.9375
vt 0.0469 0.7656
vt 0.1562 0.7656
vt 0.1562 0.9375
vt 0.1250 0.8594
vt 0.0625 0.8750
vt 0.0781 0.7812
vt 0.1250 0.7656
vt 0.2500 0.7500
vt 0.2344 0.7969
vt 0.0156 0.7969
vt 0.2500 0.9531
vt 0.2344 0.9062
vt 0.0000 0.9531
vt 0.0156 0.9062
vt 0.3281 0.7656
vt 0.3281 0.7656
vt 0.3281 0.7656
vt 0.3281 0.7656
vt 0.3281 0.7656
vt 0.3281 0.7656
vt 0.2656 0.9688
vt 0.2656 0.9688
vt 0.2656 0.9688
vt 0.2656 0.9688
vt 0.2656 0.9688
vt 0.2656 0.9688
vt 0.3906 0.8438
vt 0.2812 0.8438
vt 0.2969 0.8281
vt 0.3750 0.8281
vt 0.2812 0.7812
vt 0.2969 0.7969
vt 0.3906 0.7812
vt 0.3750 0.7969
vt 0.1094 0.7969
vt 0.1094 0.9688
vt 0.0938 0.9688
vt 0.0938 0.7969
vt 0.1250 0.8750
vt 0.0781 0.8750
vt 0.3438 0.8125
vt 0.3438 0.8281
vt 0.3438 0.8281
vt 0.3438 0.8125
vt 0.3594 0.8281
vt 0.3594 0.8125
vt 0.3594 0.8125
vt 0.3594 0.8281
vn 0.0000 -1.0000 0.0000
vn -0.0000 -0.4206 0.9072
vn -0.0011 0.0371 -0.9993
vn -0.0000 0.0270 0.9996
vn -0.9996 0.0270 -0.0000
vn 0.0000 0.0270 -0.9996
vn -0.0000 0.0000 1.0000
vn 0.9072 -0.4206 0.0000
vn -0.9072 -0.4206 -0.0000
vn 0.0000 -0.4206 -0.9072
vn 0.0000 1.0000 0.0000
vn 1.0000 0.0000 0.0000
vn -1.0000 0.0000 -0.0000
vn 0.0000 0.0000 -1.0000
vn 0.0053 -0.0725 -0.9974
vn -0.0291 0.9996 -0.0000
vn 0.0021 -0.0728 -0.9973
vn 0.9973 0.0729 0.0000
vn -0.0729 0.9973 0.0000
vn 0.0729 -0.9973 0.0000
vn 0.0053 -0.0725 0.9974
vn 0.9999 0.0102 0.0000
vn 0.9995 0.0309 0.0000
vn 0.9989 0.0479 0.0000
vn 0.0291 -0.9996 0.0000
vn 0.0021 -0.0728 0.9973
vn -0.0011 0.0371 0.9993
usemtl Material
s off
f 1/1/1 2/2/1 3/3/1 4/4/1
f 7/5/2 6/6/2 10/7/2 12/8/2
f 48/9/3 47/10/3 55/11/3 56/12/3
f 2/13/4 6/14/4 7/15/4 3/16/4
f 3/3/5 7/17/5 8/18/5 4/19/5
f 5/20/6 1/21/6 4/22/6 8/23/6
f 12/24/7 10/25/7 14/26/7 16/27/7
f 6/28/8 5/29/8 9/30/8 10/31/8
f 8/32/9 7/33/9 12/34/9 11/35/9
f 5/36/10 8/37/10 11/38/10 9/39/10
f 15/40/11 16/41/11 20/42/11 19/43/11
f 10/44/12 9/45/12 13/46/12 14/47/12
f 11/48/13 12/49/13 16/50/13 15/51/13
f 9/52/14 11/53/14 15/54/14 13/55/14
f 17/56/14 19/57/14 23/58/14 21/59/14
f 13/60/11 15/40/11 19/43/11 17/61/11
f 16/41/11 14/62/11 18/63/11 20/42/11
f 14/62/11 13/60/11 17/61/11 18/63/11
f 24/64/1 22/65/1 26/66/1 28/67/1
f 20/68/7 18/69/7 22/70/7 24/71/7
f 18/72/12 17/73/12 21/74/12 22/75/12
f 19/76/13 20/77/13 24/78/13 23/79/13
f 27/80/13 28/81/13 32/82/13 31/83/13
f 22/65/1 21/84/1 25/85/1 26/66/1
f 23/86/1 24/64/1 28/67/1 27/87/1
f 21/84/1 23/86/1 27/87/1 25/85/1
f 29/88/11 31/83/11 32/89/11 30/90/11
f 25/91/14 27/92/14 31/93/14 29/94/14
f 28/95/7 26/96/7 30/97/7 32/98/7
f 26/99/12 25/100/12 29/101/12 30/90/12
f 36/102/15 34/103/15 38/104/15 40/105/15
f 47/106/16 45/107/16 53/108/16 55/109/16
f 33/110/16 34/111/16 50/112/16 49/113/16
f 34/103/17 36/102/17 52/114/17 50/115/17
f 37/116/18 39/117/18 40/118/18 38/119/18
f 34/111/19 33/110/19 37/120/19 38/121/19
f 35/122/20 36/123/20 40/124/20 39/125/20
f 33/126/21 35/127/21 39/128/21 37/129/21
f 2/2/22 1/130/22 44/131/22 43/132/22
f 1/130/23 5/133/23 42/134/23 44/131/23
f 6/135/23 2/2/23 43/132/23 41/136/23
f 5/133/22 6/135/22 41/136/22 42/134/22
f 43/137/7 44/138/7 48/139/7 46/140/7
f 44/138/7 42/141/7 47/142/7 48/139/7
f 41/143/7 43/144/7 46/145/7 45/146/7
f 42/147/7 41/143/7 45/146/7 47/148/7
f 55/149/22 53/150/22 52/151/22 51/152/22
f 53/150/24 54/153/24 50/154/24 52/151/24
f 56/155/24 55/149/24 51/152/24 49/156/24
f 54/153/22 56/155/22 49/156/22 50/154/22
f 36/157/25 35/158/25 51/159/25 52/160/25
f 35/127/26 33/126/26 49/161/26 51/162/26
f 45/163/27 46/164/27 54/165/27 53/166/27
f 46/167/25 48/168/25 56/169/25 54/170/25
