# Blender v2.78 (sub 0) OBJ File: 'generator.blend'
# www.blender.org
mtllib generator.mtl
o Cube
v 1.000000 0.000000 -1.000000
v 1.000000 0.000000 1.000000
v -1.000000 0.000000 1.000000
v -1.000000 0.000000 -1.000000
v 1.000000 1.300000 -0.999999
v 0.999999 1.300000 1.000001
v -1.000000 1.300000 1.000000
v -1.000000 1.300000 -1.000000
v 0.418282 1.300000 -0.418282
v 0.418282 1.300000 0.418283
v -0.418282 1.300000 -0.418282
v -0.418283 1.300000 0.418282
v 0.418282 2.264511 -0.387841
v 0.418282 2.577812 0.387841
v -0.418282 2.264511 -0.387841
v -0.418283 2.577811 0.387841
v 0.342267 3.587060 -0.634214
v 0.185676 3.498404 -0.113142
v -0.185677 3.587060 -0.792870
v -0.342267 3.498404 -0.271798
v 0.293377 4.595419 -0.476594
v 0.136786 4.604338 0.051890
v -0.234567 4.566172 -0.632531
v -0.391157 4.575090 -0.104047
v 0.418282 2.577812 0.387841
v -0.418283 2.577811 0.387841
v 0.563444 2.944586 1.109397
v -0.273120 2.944586 1.109397
v 0.228003 2.861837 1.752946
v -0.088055 2.861837 1.752946
v 0.989086 3.782303 -0.634214
v 0.832495 3.693646 -0.113142
v 1.366867 3.594857 -0.495568
v 1.293608 3.553380 -0.251789
v 0.418282 2.264511 -0.787449
v -0.418282 2.264511 -0.787449
v 0.154311 2.009207 -1.323653
v -0.154311 2.009207 -1.323653
v -0.680405 3.797650 -0.792870
v -0.836996 3.708993 -0.271798
v -1.006411 3.600088 -0.631023
v -1.065727 3.566505 -0.433645
v 0.232377 5.433902 -0.385963
v -0.018378 5.441404 0.003988
v -0.157291 5.409302 -0.636063
v -0.408046 5.416804 -0.246112
v 0.805098 5.902275 -0.533755
v 0.093108 5.923575 0.573467
v -0.301320 5.832426 -1.243884
v -1.013310 5.853726 -0.136662
v 0.797644 6.109630 -0.542537
v 0.085654 6.130930 0.564685
v -0.308774 6.039781 -1.252666
v -1.020764 6.061081 -0.145444
v -1.163872 6.809530 0.737481
v -1.163872 6.064688 0.737481
v -1.163872 6.809530 -1.262519
v -1.163872 6.064688 -1.262519
v 0.836128 6.809530 0.737481
v 0.836128 6.064688 0.737481
v 0.836128 6.809530 -1.262519
v 0.836128 6.064688 -1.262519
v -1.163872 6.809530 -1.262519
v -1.163872 6.809530 0.737481
v 0.836128 6.809530 -1.262519
v 0.836128 6.809530 0.737481
v -1.070415 6.809530 -1.169062
v -1.070415 6.809530 0.644023
v 0.742670 6.809530 -1.169062
v 0.742670 6.809530 0.644023
v -1.070415 6.769323 -1.169062
v -1.070415 6.769323 0.644023
v 0.742670 6.769323 -1.169062
v 0.742670 6.769323 0.644023
vt 0.5000 0.5000
vt 0.7500 0.5000
vt 0.7500 0.7500
vt 0.5000 0.7500
vt 0.7500 1.0000
vt 0.5000 1.0000
vt 0.5781 0.9219
vt 0.6719 0.9219
vt 0.5000 0.7969
vt 0.5000 0.9531
vt 0.2500 0.9531
vt 0.2500 0.7969
vt 0.2500 0.9531
vt 0.2500 0.7969
vt 0.5000 0.7969
vt 0.5000 0.9531
vt 0.5000 0.7969
vt 0.5000 0.9531
vt 0.2500 0.9531
vt 0.2500 0.7969
vt 0.5000 0.7969
vt 0.5000 0.9531
vt 0.2500 0.9531
vt 0.2500 0.7969
vt 0.1875 0.9375
vt 0.0781 0.9688
vt 0.0625 0.8125
vt 0.1562 0.8281
vt 0.5000 0.7500
vt 0.7500 0.7500
vt 0.6719 0.8281
vt 0.5781 0.8281
vt 0.0938 0.8438
vt 0.1875 0.8281
vt 0.1562 0.9531
vt 0.0938 0.9531
vt 0.1875 0.9375
vt 0.0781 0.9375
vt 0.0781 0.8281
vt 0.1875 0.8281
vt 0.0469 0.7812
vt 0.1406 0.7656
vt 0.1562 0.9219
vt 0.0469 0.9375
vt 0.0781 0.7812
vt 0.1875 0.7812
vt 0.1719 0.8906
vt 0.0781 0.9375
vt 0.0938 0.8438
vt 0.1562 0.8281
vt 0.1719 0.9688
vt 0.1094 0.9688
vt 0.0781 0.8281
vt 0.1719 0.7969
vt 0.1875 0.9531
vt 0.1250 0.9531
vt 0.1562 0.9531
vt 0.0625 0.9375
vt 0.1250 0.8125
vt 0.1875 0.7812
vt 0.1875 0.9531
vt 0.0781 0.9531
vt 0.0938 0.7969
vt 0.1719 0.7969
vt 0.1250 0.9375
vt 0.0625 0.9531
vt 0.0625 0.8438
vt 0.1094 0.8438
vt 0.0781 0.8281
vt 0.1406 0.8281
vt 0.1250 0.9531
vt 0.0469 0.9531
vt 0.1719 0.9375
vt 0.1094 0.9531
vt 0.0625 0.8281
vt 0.1250 0.8125
vt 0.1562 0.9375
vt 0.0938 0.9375
vt 0.0781 0.8281
vt 0.1562 0.8281
vt 1.0273 0.8672
vt 1.0273 0.8672
vt 1.0273 0.8672
vt 1.0273 0.8672
vt 0.7500 0.8281
vt 0.9062 0.8281
vt 0.9062 1.0000
vt 0.7500 1.0000
vt 1.0273 1.7900
vt 1.1277 1.7847
vt 1.1409 1.8618
vt 1.0405 1.8672
vt 0.9062 1.0000
vt 0.7500 1.0000
vt 0.7500 0.8281
vt 0.9062 0.8281
vt 0.9062 1.0000
vt 0.7500 1.0000
vt 0.7500 0.8281
vt 0.9062 0.8281
vt 0.7500 0.8281
vt 0.9062 0.8281
vt 0.9062 1.0000
vt 0.7500 1.0000
vt 0.7500 0.8281
vt 0.9062 0.8281
vt 0.9062 1.0000
vt 0.7500 1.0000
vt 0.7500 0.8281
vt 0.9062 0.8281
vt 0.9062 1.0000
vt 0.7500 1.0000
vt 0.7500 0.8281
vt 0.9062 0.8281
vt 0.9062 1.0000
vt 0.7500 1.0000
vt 0.0625 0.9062
vt 0.0625 0.8594
vt 0.1094 0.7969
vt 0.1094 0.9688
vt 0.1094 0.9219
vt 0.0469 0.9219
vt 0.0625 0.8281
vt 0.1094 0.8125
vt 0.0781 0.8125
vt 0.1562 0.8125
vt 0.1406 0.9219
vt 0.0938 0.9219
vt 0.1250 0.8438
vt 0.1875 0.8438
vt 0.1719 0.9375
vt 0.1250 0.9375
vt 0.0625 0.8594
vt 0.2031 0.8594
vt 0.2031 0.8750
vt 0.0625 0.8906
vt 0.0938 0.8125
vt 0.1562 0.8125
vt 0.2031 0.8750
vt 0.0469 0.8750
vt 0.1406 0.8125
vt 0.1875 0.8125
vt 0.2188 0.8594
vt 0.0781 0.8594
vt 0.1094 0.7812
vt 0.1562 0.7812
vt 0.1875 0.8438
vt 0.0469 0.8438
vt 1.8388 1.5876
vt 1.9969 1.5877
vt 1.9969 1.7470
vt 1.8388 1.7470
vt 0.0312 0.8281
vt 0.1719 0.8281
vt 0.1719 0.8438
vt 0.0312 0.8594
vt 0.1250 0.9688
vt 0.1250 0.8281
vt 0.1562 0.8281
vt 0.1562 0.9688
vt 0.1094 0.8125
vt 0.0781 0.9688
vt 0.0781 0.8125
vt 0.5000 0.6719
vt 0.5000 0.7500
vt 0.2500 0.7500
vt 0.2500 0.6719
vt 0.5000 0.6719
vt 0.5000 0.7500
vt 0.2500 0.7500
vt 0.2500 0.6719
vt 0.5000 0.6719
vt 0.5000 0.7500
vt 0.2500 0.7500
vt 0.2500 0.6719
vt 0.5000 0.6719
vt 0.5000 0.7500
vt 0.2500 0.7500
vt 0.2500 0.6719
vt 1.0273 0.8672
vt 1.0273 0.8672
vt 1.0273 0.8672
vt 1.0273 0.8672
vt 0.2500 0.5000
vt 0.5000 0.5000
vt 0.2500 0.5000
vt 0.2500 0.7500
vt 0.2344 0.7344
vt 0.2344 0.5156
vt 1.0273 0.8672
vt 1.0273 0.8672
vt 1.0273 0.8672
vt 1.0273 0.8672
vt 0.3750 0.7188
vt 0.3750 0.5000
vt 0.3906 0.5000
vt 0.3906 0.7188
vt 0.0000 0.5000
vt 0.0156 0.5156
vt -0.0000 0.7500
vt 0.0156 0.7344
vt 0.2344 0.7344
vt 0.0156 0.7344
vt 0.0156 0.5156
vt 0.2344 0.5156
vt 0.3594 0.7188
vt 0.3594 0.5000
vt 0.3750 0.5000
vt 0.3750 0.7188
vt 0.3750 0.7188
vt 0.3750 0.5000
vt 0.3750 0.5000
vt 0.3750 0.7188
vt 0.3750 0.7188
vt 0.3750 0.5000
vn 0.0000 -1.0000 0.0000
vn 0.0000 1.0000 -0.0000
vn 1.0000 0.0000 0.0000
vn -0.0000 -0.0000 1.0000
vn -1.0000 -0.0000 -0.0000
vn 0.0000 0.0000 -1.0000
vn -0.0983 0.5247 0.8456
vn 0.0000 0.0315 -0.9995
vn -0.0000 0.0238 0.9997
vn -0.2780 -0.1569 0.9477
vn 0.9822 0.1651 0.0900
vn -0.9885 0.0733 -0.1321
vn 0.1120 -0.2439 -0.9633
vn -0.9141 -0.0023 -0.4054
vn 0.9582 0.0007 0.2860
vn -0.9582 0.0001 -0.2859
vn 0.2774 0.1651 -0.9465
vn -0.0000 0.8914 -0.4531
vn -0.0000 0.9918 0.1275
vn -0.2881 0.9546 0.0758
vn 0.3515 0.8997 0.2587
vn -0.0000 0.9029 -0.4299
vn 0.3777 0.8873 0.2645
vn -0.5226 0.8525 -0.0120
vn -0.5875 -0.7228 -0.3639
vn 0.4021 0.0435 -0.9145
vn -0.4069 0.0614 0.9114
vn 0.9096 0.1071 0.4015
vn -0.5408 0.0162 0.8410
vn 0.4185 -0.6959 -0.5836
vn -0.3693 -0.6723 0.6415
vn 0.6367 -0.6455 0.4219
vn -0.0359 0.9985 -0.0423
vn 0.8404 0.0531 0.5394
vn -0.8404 -0.0531 -0.5394
vn 0.5408 -0.0162 -0.8410
usemtl geneer
s off
f 1/1/1 2/2/1 3/3/1 4/4/1
f 6/5/2 5/6/2 9/7/2 10/8/2
f 1/9/3 5/10/3 6/11/3 2/12/3
f 2/13/4 6/14/4 7/15/4 3/16/4
f 3/17/5 7/18/5 8/19/5 4/20/5
f 5/21/6 1/22/6 4/23/6 8/24/6
f 11/25/5 12/26/5 16/27/5 15/28/5
f 8/29/2 7/30/2 12/31/2 11/32/2
f 5/6/2 8/29/2 11/32/2 9/7/2
f 7/30/2 6/5/2 10/8/2 12/31/2
f 16/33/7 14/34/7 18/35/7 20/36/7
f 9/37/8 11/38/8 15/39/8 13/40/8
f 12/41/9 10/42/9 14/43/9 16/44/9
f 10/45/3 9/46/3 13/47/3 14/48/3
f 20/49/10 18/50/10 22/51/10 24/52/10
f 14/53/11 13/54/11 17/55/11 18/56/11
f 15/57/12 16/58/12 20/59/12 19/60/12
f 13/61/13 15/62/13 19/63/13 17/64/13
f 23/65/14 24/66/14 46/67/14 45/68/14
f 18/69/15 17/70/15 21/71/15 22/72/15
f 19/73/16 20/74/16 24/75/16 23/76/16
f 17/77/17 19/78/17 23/79/17 21/80/17
f 14/81/4 16/82/4 26/83/4 25/84/4
f 25/85/18 26/86/18 28/87/18 27/88/18
f 27/89/19 28/90/19 30/91/19 29/92/19
f 17/93/20 18/94/20 32/95/20 31/96/20
f 31/97/21 32/98/21 34/99/21 33/100/21
f 15/101/2 13/102/2 35/103/2 36/104/2
f 36/105/22 35/106/22 37/107/22 38/108/22
f 20/109/23 19/110/23 39/111/23 40/112/23
f 40/113/24 39/114/24 41/115/24 42/116/24
f 45/117/25 46/118/25 50/119/25 49/120/25
f 21/121/26 23/122/26 45/123/26 43/124/26
f 24/125/27 22/126/27 44/127/27 46/128/27
f 22/129/28 21/130/28 43/131/28 44/132/28
f 50/133/29 48/134/29 52/135/29 54/136/29
f 43/137/30 45/138/30 49/139/30 47/140/30
f 46/141/31 44/142/31 48/143/31 50/144/31
f 44/145/32 43/146/32 47/147/32 48/148/32
f 51/149/33 53/150/33 54/151/33 52/152/33
f 48/153/34 47/154/34 51/155/34 52/156/34
f 49/157/35 50/158/35 54/159/35 53/160/35
f 47/161/36 49/120/36 53/162/36 51/163/36
f 55/164/3 56/165/3 58/166/3 57/167/3
f 57/168/4 58/169/4 62/170/4 61/171/4
f 61/172/5 62/173/5 60/174/5 59/175/5
f 59/176/6 60/177/6 56/178/6 55/179/6
f 59/180/4 55/181/4 64/182/4 66/183/4
f 62/184/2 58/185/2 56/165/2 60/174/2
f 64/186/1 63/187/1 67/188/1 68/189/1
f 57/190/4 61/191/4 65/192/4 63/193/4
f 55/181/4 57/190/4 63/193/4 64/182/4
f 61/191/4 59/180/4 66/183/4 65/192/4
f 70/194/4 68/195/4 72/196/4 74/197/4
f 66/198/1 64/186/1 68/189/1 70/199/1
f 63/187/1 65/200/1 69/201/1 67/188/1
f 65/200/1 66/198/1 70/199/1 69/201/1
f 71/202/1 73/203/1 74/204/1 72/205/1
f 67/206/6 69/207/6 73/208/6 71/209/6
f 69/210/3 70/211/3 74/212/3 73/213/3
f 68/195/5 67/214/5 71/209/5 72/215/5
