# Blender v2.78 (sub 0) OBJ File: 'generator.blend'
# www.blender.org
mtllib generator.mtl
o Cube
v 1.000000 0.000000 -1.000000
v 1.000000 0.000000 1.000000
v -1.000000 0.000000 1.000000
v -1.000000 0.000000 -1.000000
v 1.000000 2.000000 -0.999999
v 0.999999 2.000000 1.000001
v -1.000000 2.000000 1.000000
v -1.000000 2.000000 -1.000000
v 0.739589 2.334108 -0.739589
v 0.739588 2.334108 0.739589
v -0.739589 2.334108 -0.739589
v -0.739589 2.334108 0.739589
v 0.739589 2.675631 -0.739589
v 0.739588 2.675631 0.739589
v -0.739589 2.675631 -0.739589
v -0.739589 2.675631 0.739589
v 0.571915 2.675631 -0.571914
v 0.571914 2.675631 0.571915
v -0.571915 2.675631 -0.571915
v -0.571915 2.675631 0.571915
v 0.571915 5.276590 -0.571914
v 0.571914 5.276590 0.571915
v -0.571915 5.276590 -0.571915
v -0.571915 5.276590 0.571915
v 0.649521 5.276590 -0.649521
v 0.649520 5.276590 0.649521
v -0.649521 5.276590 -0.649521
v -0.649521 5.276590 0.649521
v 0.649521 5.870684 -0.649521
v 0.649520 5.870684 0.649521
v -0.649521 5.870684 -0.649521
v -0.649521 5.870684 0.649521
v 0.397929 5.870684 -0.397928
v 0.397928 5.870684 0.397929
v -0.397929 5.870684 -0.397929
v -0.397929 5.870684 0.397929
v 0.397929 3.503352 -0.397928
v 0.397928 3.503352 0.397929
v -0.397929 3.503352 -0.397929
v -0.397929 3.503352 0.397929
v 0.830192 0.946422 1.000000
v -0.830193 0.946422 1.000000
v 0.830192 1.609422 1.000000
v -0.830193 1.609422 1.000000
v -1.246788 -0.011246 1.246788
v -1.246788 0.778011 1.246788
v -1.246788 -0.011246 -1.246788
v -1.246788 0.778011 -1.246788
v 1.246788 -0.011246 1.246788
v 1.246788 0.778011 1.246788
v 1.246788 -0.011246 -1.246788
v 1.246788 0.778011 -1.246788
v 0.830193 0.946422 0.193240
v -0.830192 0.946422 0.193239
v 0.830192 1.609422 0.193240
v -0.830193 1.609422 0.193239
vt 0.0000 0.5270
vt 0.2099 0.5270
vt 0.2099 0.7383
vt 0.0000 0.7383
vt 0.2500 0.7969
vt 0.0312 0.7969
vt 0.0625 0.7656
vt 0.2188 0.7656
vt 0.2500 0.7500
vt 0.2500 1.0000
vt -0.0000 1.0000
vt -0.0000 0.7500
vt 0.4715 0.2827
vt 0.2616 0.2827
vt 0.2795 0.1827
vt 0.4537 0.1827
vt -0.0000 1.0000
vt -0.0000 0.7500
vt 0.2500 0.7500
vt 0.2500 1.0000
vt 0.2500 0.7500
vt 0.2500 1.0000
vt -0.0000 1.0000
vt -0.0000 0.7500
vt 0.0469 0.5156
vt 0.2031 0.5156
vt 0.2031 0.5625
vt 0.0469 0.5625
vt 0.2344 0.7969
vt 0.0156 0.7969
vt 0.0469 0.7656
vt 0.2031 0.7656
vt 0.0312 0.7656
vt 0.2344 0.7656
vt 0.2188 0.7969
vt 0.0625 0.7969
vt 0.2188 0.8125
vt 0.0156 0.8125
vt 0.0469 0.7656
vt 0.2031 0.7656
vt 0.2344 0.5625
vt 0.2344 0.7188
vt 0.2188 0.7031
vt 0.2188 0.5781
vt 0.0469 0.5156
vt 0.2031 0.5156
vt 0.2031 0.5625
vt 0.0469 0.5625
vt 0.0469 0.5156
vt 0.1875 0.5156
vt 0.1875 0.5625
vt 0.0469 0.5625
vt 0.0469 0.5156
vt 0.2031 0.5156
vt 0.2031 0.5625
vt 0.0469 0.5625
vt 0.5000 0.7500
vt 0.2500 0.7500
vt 0.2500 0.1719
vt 0.5000 0.1719
vt 0.2031 0.6562
vt 0.0469 0.6562
vt 0.0781 0.6406
vt 0.1875 0.6406
vt 0.2344 0.5625
vt 0.2344 0.7188
vt 0.2188 0.7031
vt 0.2188 0.5781
vt 0.0156 0.7031
vt 0.0156 0.5469
vt 0.0312 0.5625
vt 0.0312 0.6875
vt 0.0625 0.9531
vt 0.1719 0.9531
vt 0.1875 0.9688
vt 0.0469 0.9688
vt 0.5000 0.7500
vt 0.2500 0.7500
vt 0.2500 0.1719
vt 0.5000 0.1719
vt 0.5000 0.7500
vt 0.2500 0.7500
vt 0.2500 0.1719
vt 0.5000 0.1719
vt 0.5000 0.7500
vt 0.2500 0.7500
vt 0.2500 0.1719
vt 0.5000 0.1719
vt 0.2500 0.7656
vt 0.2500 0.9062
vt 0.1875 0.9062
vt 0.1875 0.7656
vt 0.1719 0.8438
vt 0.1875 0.8281
vt 0.0625 0.8438
vt 0.0469 0.8281
vt 0.0625 0.9375
vt 0.0625 0.7969
vt 0.0781 0.8281
vt 0.0781 0.9062
vt 0.2500 0.7500
vt 0.2500 0.8906
vt 0.1875 0.8906
vt 0.1875 0.7500
vt 0.2500 0.7656
vt 0.2500 0.9062
vt 0.1875 0.9062
vt 0.1875 0.7656
vt 0.2500 0.7500
vt 0.2500 0.8906
vt 0.1875 0.8906
vt 0.1875 0.7500
vt 0.5000 0.7500
vt 0.5781 0.7500
vt 0.5781 1.0000
vt 0.5000 1.0000
vt 0.1875 0.7969
vt 0.1875 0.9375
vt 0.1719 0.9062
vt 0.1719 0.8281
vt 0.0000 0.9597
vt 0.0000 0.8756
vt 0.0835 0.8756
vt 0.0835 0.9597
vt 0.5000 0.7500
vt 0.5781 0.7500
vt 0.5781 1.0000
vt 0.5000 1.0000
vt 0.5938 1.0000
vt 0.5000 1.0000
vt 0.5000 0.7500
vt 0.5938 0.7500
vt 0.5000 0.7500
vt 0.5781 0.7500
vt 0.5781 1.0000
vt 0.5000 1.0000
vt 0.5312 0.8438
vt 0.6094 0.8438
vt 0.6094 0.9219
vt 0.5312 0.9219
vt -0.0000 0.7500
vt 0.2500 0.7500
vt 0.2344 0.7969
vt 0.0156 0.7969
vt 0.2344 0.7656
vt 0.2344 0.9844
vt 0.2188 0.8750
vt 0.2188 0.8125
vt 0.0000 0.9844
vt 0.0000 0.7812
vt 0.0156 0.8125
vt 0.0156 0.8906
vt -0.0000 0.5000
vt 0.0781 0.5000
vt 0.0781 0.7500
vt -0.0000 0.7500
vt 0.0000 0.5000
vt 0.0938 0.5000
vt 0.0938 0.7500
vt 0.0000 0.7500
vt 0.0781 0.7500
vt -0.0000 0.7500
vt 0.0000 0.5000
vt 0.0781 0.5000
vt 0.2500 0.5000
vt 0.2500 0.5938
vt -0.0000 0.5938
vt 0.2500 0.5000
vt 0.2500 0.7500
vt -0.0000 0.7500
vt 0.0000 0.5000
vt 0.2500 0.5000
vt 0.2500 0.7500
vt 0.0000 0.7500
vt 0.5938 0.9531
vt 0.5312 0.9531
vt 0.5312 0.7812
vt 0.5938 0.7812
vt 0.4062 0.7969
vt 0.4062 0.9688
vt 0.3125 0.9688
vt 0.3125 0.7969
vt 0.6875 0.7812
vt 0.6875 0.9531
vt 0.6094 0.9531
vt 0.6094 0.7812
vt 0.6250 0.7812
vt 0.7031 0.7812
vt 0.7031 0.8750
vt 0.6250 0.8750
vn 0.0000 -1.0000 0.0000
vn 0.0000 0.6147 -0.7887
vn 1.0000 0.0000 0.0000
vn -0.0000 -0.0000 1.0000
vn -1.0000 -0.0000 -0.0000
vn 0.0000 0.0000 -1.0000
vn -0.0000 0.6147 0.7887
vn 0.7887 0.6147 0.0000
vn -0.7887 0.6147 -0.0000
vn 0.0000 1.0000 0.0000
usemtl Material
s off
f 1/1/1 2/2/1 3/3/1 4/4/1
f 5/5/2 8/6/2 11/7/2 9/8/2
f 1/9/3 5/10/3 6/11/3 2/12/3
f 3/13/4 2/14/4 41/15/4 42/16/4
f 3/17/5 7/18/5 8/19/5 4/20/5
f 5/21/6 1/22/6 4/23/6 8/24/6
f 12/25/4 10/26/4 14/27/4 16/28/4
f 7/29/7 6/30/7 10/31/7 12/32/7
f 6/33/8 5/34/8 9/35/8 10/36/8
f 8/37/9 7/38/9 12/39/9 11/40/9
f 14/41/10 13/42/10 17/43/10 18/44/10
f 10/45/3 9/46/3 13/47/3 14/48/3
f 11/49/5 12/50/5 16/51/5 15/52/5
f 9/53/6 11/54/6 15/55/6 13/56/6
f 19/57/5 20/58/5 24/59/5 23/60/5
f 15/61/10 16/62/10 20/63/10 19/64/10
f 13/65/10 15/66/10 19/67/10 17/68/10
f 16/69/10 14/70/10 18/71/10 20/72/10
f 24/73/1 22/74/1 26/75/1 28/76/1
f 17/77/6 19/78/6 23/79/6 21/80/6
f 20/81/4 18/82/4 22/83/4 24/84/4
f 18/85/3 17/86/3 21/87/3 22/88/3
f 27/89/5 28/90/5 32/91/5 31/92/5
f 22/74/1 21/93/1 25/94/1 26/75/1
f 23/95/1 24/73/1 28/76/1 27/96/1
f 21/93/1 23/95/1 27/96/1 25/94/1
f 29/97/10 31/98/10 35/99/10 33/100/10
f 25/101/6 27/102/6 31/103/6 29/104/6
f 28/105/4 26/106/4 30/107/4 32/108/4
f 26/109/3 25/110/3 29/111/3 30/112/3
f 36/113/6 34/114/6 38/115/6 40/116/6
f 32/117/10 30/118/10 34/119/10 36/120/10
f 30/118/10 29/97/10 33/100/10 34/119/10
f 31/98/10 32/117/10 36/120/10 35/99/10
f 37/121/10 39/122/10 40/123/10 38/124/10
f 34/125/5 33/126/5 37/127/5 38/128/5
f 35/129/3 36/130/3 40/131/3 39/132/3
f 33/133/4 35/134/4 39/135/4 37/136/4
f 44/137/3 42/138/3 54/139/3 56/140/3
f 6/141/4 7/142/4 44/143/4 43/144/4
f 7/145/4 3/146/4 42/147/4 44/148/4
f 2/149/4 6/150/4 43/151/4 41/152/4
f 45/153/5 46/154/5 48/155/5 47/156/5
f 47/157/6 48/158/6 52/159/6 51/160/6
f 51/161/3 52/162/3 50/163/3 49/164/3
f 49/165/4 50/166/4 46/167/4 45/153/4
f 47/157/1 51/168/1 49/169/1 45/170/1
f 52/171/10 48/172/10 46/173/10 50/174/10
f 53/175/4 55/176/4 56/177/4 54/178/4
f 42/179/10 41/180/10 53/181/10 54/182/10
f 43/183/1 44/184/1 56/185/1 55/186/1
f 41/187/5 43/188/5 55/189/5 53/190/5
