# Blender v2.78 (sub 0) OBJ File: ''
# www.blender.org
mtllib candle.mtl
o Cube
v 0.400000 0.000000 -0.400000
v 0.400000 0.000000 0.400000
v -0.400000 0.000000 0.400000
v -0.400000 0.000000 -0.400000
v 0.400000 1.600000 -0.400000
v 0.400000 1.600000 0.400000
v -0.400000 1.600000 0.400000
v -0.400000 1.600000 -0.400000
v 0.328995 1.600000 -0.328995
v 0.328995 1.600000 0.328995
v -0.328995 1.600000 -0.328995
v -0.328995 1.600000 0.328995
v 0.328995 1.543254 -0.328995
v 0.328995 1.543254 0.328995
v -0.328995 1.543254 -0.328995
v -0.328995 1.543254 0.328995
v 0.064496 1.543254 -0.064496
v 0.064496 1.543254 0.064496
v -0.064496 1.543254 -0.064496
v -0.064496 1.543254 0.064496
v 0.064496 1.912847 -0.064496
v 0.064496 1.912847 0.064496
v -0.064496 1.912847 -0.064496
v -0.064496 1.912847 0.064496
v 0.396352 0.800000 -0.396351
v 0.394825 0.800000 0.394826
v -0.396352 0.800000 0.396351
v -0.394825 0.800000 -0.394826
vt 0.1250 0.8750
vt -0.0000 0.8750
vt -0.0000 0.7500
vt 0.1250 0.7500
vt -0.0000 0.9688
vt -0.0000 0.7812
vt 0.0312 0.8438
vt 0.0312 0.9375
vt 0.1250 0.8750
vt 0.1250 1.0000
vt -0.0000 1.0000
vt -0.0000 0.8750
vt 0.1250 0.8750
vt 0.1250 1.0000
vt -0.0000 1.0000
vt 0.0000 0.8750
vt 0.1250 0.8750
vt 0.1250 1.0000
vt -0.0000 1.0000
vt -0.0000 0.8750
vt -0.0000 0.8750
vt -0.0000 0.7500
vt 0.1250 0.8750
vt 0.0625 0.7812
vt 0.0625 0.9375
vt 0.0625 0.9375
vt 0.0625 0.7812
vt 0.0312 0.7812
vt 0.0312 0.9688
vt -0.0000 0.9688
vt -0.0000 0.8125
vt 0.0000 0.9688
vt -0.0000 0.8125
vt 0.0312 0.8438
vt 0.0312 0.9375
vt -0.0000 0.7812
vt 0.0312 0.8125
vt 0.0312 0.9688
vt 0.0000 1.0000
vt 0.0000 0.8750
vt 0.0312 0.9375
vt 0.0312 0.9375
vt 0.0312 0.9375
vt 0.0312 0.7812
vt 0.0625 0.9375
vt 0.0625 0.7812
vt 0.0938 0.7812
vt 0.0938 0.9375
vt 0.0625 0.9375
vt 0.0625 0.7812
vt 0.1874 0.9696
vt 0.1686 0.9696
vt 0.1686 0.9427
vt 0.1874 0.9427
vt 0.0938 0.8750
vt 0.0625 0.9375
vt 0.0938 1.0000
vt 0.0625 0.9375
vt 0.2249 0.9427
vt 0.2249 0.9615
vt 0.2061 0.9615
vt 0.2061 0.9427
vt 0.2061 0.9696
vt 0.2061 0.9427
vt 0.1647 0.9102
vt 0.2184 0.9102
vt 0.2184 0.9872
vt 0.1647 0.9872
vt 0.1686 0.9696
vt 0.1498 0.9696
vt 0.1498 0.9427
vt 0.1686 0.9427
vt -0.0000 1.0000
vt 0.1250 1.0000
vt 0.1250 0.7500
vt -0.0000 0.7500
vt 0.1250 0.7500
vt 0.1250 0.7500
vt -0.0000 0.7500
vn 0.0000 -1.0000 -0.0000
vn 0.0000 1.0000 -0.0000
vn 1.0000 -0.0055 0.0010
vn 0.0010 -0.0055 1.0000
vn -1.0000 -0.0055 -0.0010
vn -0.0010 0.0055 -1.0000
vn 1.0000 0.0000 0.0000
vn -0.0000 0.0000 1.0000
vn 0.0000 0.0000 -1.0000
vn -1.0000 0.0000 -0.0000
vn -0.0010 -0.0055 -1.0000
vn -1.0000 0.0055 -0.0010
vn 0.0010 0.0055 1.0000
vn 1.0000 0.0055 0.0010
usemtl Material
s off
f 1/1/1 2/2/1 3/3/1 4/4/1
f 8/5/2 7/6/2 12/7/2 11/8/2
f 25/9/3 5/10/3 6/11/3 26/12/3
f 26/13/4 6/14/4 7/15/4 27/16/4
f 27/17/5 7/18/5 8/19/5 28/20/5
f 25/21/6 1/22/6 4/4/6 28/23/6
f 11/24/7 12/25/7 16/26/7 15/27/7
f 5/28/2 8/29/2 11/30/2 9/31/2
f 7/32/2 6/33/2 10/34/2 12/35/2
f 6/11/2 5/36/2 9/37/2 10/38/2
f 16/39/2 14/40/2 18/41/2 20/42/2
f 9/43/8 11/44/8 15/27/8 13/45/8
f 12/25/9 10/46/9 14/47/9 16/48/9
f 10/46/10 9/49/10 13/45/10 14/50/10
f 19/51/10 20/52/10 24/53/10 23/54/10
f 14/40/2 13/55/2 17/56/2 18/41/2
f 15/57/2 16/39/2 20/42/2 19/58/2
f 13/55/2 15/57/2 19/58/2 17/56/2
f 21/59/2 23/60/2 24/61/2 22/62/2
f 17/63/9 19/51/9 23/54/9 21/64/9
f 20/65/8 18/66/8 22/67/8 24/68/8
f 18/69/7 17/70/7 21/71/7 22/72/7
f 5/73/11 25/21/11 28/23/11 8/74/11
f 3/75/12 27/17/12 28/20/12 4/76/12
f 2/77/13 26/13/13 27/16/13 3/3/13
f 1/78/14 25/9/14 26/12/14 2/79/14
